<svg width="104" height="96" viewBox="0 0 104 96" fill="none" xmlns="http://www.w3.org/2000/svg">
<g opacity="0.59">
<circle cx="4" cy="92" r="4" transform="rotate(-90 4 92)" fill="#D9D9D9"/>
<circle cx="20" cy="92" r="4" transform="rotate(-90 20 92)" fill="#D9D9D9"/>
<circle cx="36" cy="92" r="4" transform="rotate(-90 36 92)" fill="#D9D9D9"/>
<circle cx="52" cy="92" r="4" transform="rotate(-90 52 92)" fill="#D9D9D9"/>
<circle cx="68" cy="92" r="4" transform="rotate(-90 68 92)" fill="#D9D9D9"/>
<circle cx="4" cy="70" r="4" transform="rotate(-90 4 70)" fill="#D9D9D9"/>
<circle cx="20" cy="70" r="4" transform="rotate(-90 20 70)" fill="#D9D9D9"/>
<circle cx="36" cy="70" r="4" transform="rotate(-90 36 70)" fill="#D9D9D9"/>
<circle cx="52" cy="70" r="4" transform="rotate(-90 52 70)" fill="#D9D9D9"/>
<circle cx="68" cy="70" r="4" transform="rotate(-90 68 70)" fill="#D9D9D9"/>
<circle cx="4" cy="48" r="4" transform="rotate(-90 4 48)" fill="#D9D9D9"/>
<circle cx="20" cy="48" r="4" transform="rotate(-90 20 48)" fill="#D9D9D9"/>
<circle cx="36" cy="48" r="4" transform="rotate(-90 36 48)" fill="#D9D9D9"/>
<circle cx="52" cy="48" r="4" transform="rotate(-90 52 48)" fill="#D9D9D9"/>
<circle cx="68" cy="48" r="4" transform="rotate(-90 68 48)" fill="#D9D9D9"/>
<circle cx="4" cy="26" r="4" transform="rotate(-90 4 26)" fill="#D9D9D9"/>
<circle cx="20" cy="26" r="4" transform="rotate(-90 20 26)" fill="#D9D9D9"/>
<circle cx="36" cy="26" r="4" transform="rotate(-90 36 26)" fill="#D9D9D9"/>
<circle cx="52" cy="26" r="4" transform="rotate(-90 52 26)" fill="#D9D9D9"/>
<circle cx="68" cy="26" r="4" transform="rotate(-90 68 26)" fill="#D9D9D9"/>
<circle cx="4" cy="4" r="4" transform="rotate(-90 4 4)" fill="#D9D9D9"/>
<circle cx="20" cy="4" r="4" transform="rotate(-90 20 4)" fill="#D9D9D9"/>
<circle cx="36" cy="4" r="4" transform="rotate(-90 36 4)" fill="#D9D9D9"/>
<circle cx="52" cy="4" r="4" transform="rotate(-90 52 4)" fill="#D9D9D9"/>
<circle cx="68" cy="4" r="4" transform="rotate(-90 68 4)" fill="#D9D9D9"/>
</g>
</svg>
