<svg id="eYfOVGEL7eJ1" xmlns="http://www.w3.org/2000/svg" xmlns:xlink="http://www.w3.org/1999/xlink" viewBox="0 0 500 500" shape-rendering="geometricPrecision" text-rendering="geometricPrecision">
<style><![CDATA[
#eYfOVGEL7eJ3_ts {animation: eYfOVGEL7eJ3_ts__ts 4000ms linear infinite normal forwards}@keyframes eYfOVGEL7eJ3_ts__ts { 0% {transform: translate(249.999985px,417.713013px) scale(0.5,0.5)} 25% {transform: translate(249.999985px,417.713013px) scale(1,1)} 50% {transform: translate(249.999985px,417.713013px) scale(0.5,0.5)} 75% {transform: translate(249.999985px,417.713013px) scale(1,1)} 100% {transform: translate(249.999985px,417.713013px) scale(0.5,0.5)}} #eYfOVGEL7eJ5_to {animation: eYfOVGEL7eJ5_to__to 4000ms linear infinite normal forwards}@keyframes eYfOVGEL7eJ5_to__to { 0% {transform: translate(254.288861px,278.398049px);animation-timing-function: cubic-bezier(0.42,0,0.58,1)} 25% {transform: translate(253.184501px,293.29652px)} 50% {transform: translate(254.288861px,278.398049px);animation-timing-function: cubic-bezier(0.42,0,0.58,1)} 75% {transform: translate(253.184501px,293.29652px)} 100% {transform: translate(254.288861px,278.398049px)}} #eYfOVGEL7eJ81_tr {animation: eYfOVGEL7eJ81_tr__tr 4000ms linear infinite normal forwards}@keyframes eYfOVGEL7eJ81_tr__tr { 0% {transform: translate(250.990913px,230.079414px) rotate(0deg)} 25% {transform: translate(250.990913px,230.079414px) rotate(6.081881deg)} 50% {transform: translate(250.990913px,230.079414px) rotate(-2.167973deg)} 75% {transform: translate(250.990913px,230.079414px) rotate(4.982373deg)} 100% {transform: translate(250.990913px,230.079414px) rotate(0deg)}} #eYfOVGEL7eJ99_tr {animation: eYfOVGEL7eJ99_tr__tr 4000ms linear infinite normal forwards}@keyframes eYfOVGEL7eJ99_tr__tr { 0% {transform: translate(263.364197px,219.360725px) rotate(0deg)} 25% {transform: translate(263.364197px,219.360725px) rotate(5deg)} 50% {transform: translate(263.364197px,219.360725px) rotate(0deg)} 75% {transform: translate(263.364197px,219.360725px) rotate(5deg)} 100% {transform: translate(263.364197px,219.360725px) rotate(0deg)}} #eYfOVGEL7eJ125_ts {animation: eYfOVGEL7eJ125_ts__ts 4000ms linear infinite normal forwards}@keyframes eYfOVGEL7eJ125_ts__ts { 0% {transform: translate(381.482986px,372.964005px) scale(2,2)} 25% {transform: translate(381.482986px,372.964005px) scale(0,0)} 50% {transform: translate(381.482986px,372.964005px) scale(2,2)} 75% {transform: translate(381.482986px,372.964005px) scale(0,0)} 100% {transform: translate(381.482986px,372.964005px) scale(2,2)}} #eYfOVGEL7eJ126_ts {animation: eYfOVGEL7eJ126_ts__ts 4000ms linear infinite normal forwards}@keyframes eYfOVGEL7eJ126_ts__ts { 0% {transform: translate(101.744495px,314.694504px) scale(0,0)} 25% {transform: translate(101.744495px,314.694504px) scale(2,2)} 50% {transform: translate(101.744495px,314.694504px) scale(0,0)} 75% {transform: translate(101.744495px,314.694504px) scale(2,2)} 100% {transform: translate(101.744495px,314.694504px) scale(0,0)}} #eYfOVGEL7eJ169_tr {animation: eYfOVGEL7eJ169_tr__tr 4000ms linear infinite normal forwards}@keyframes eYfOVGEL7eJ169_tr__tr { 0% {transform: translate(341.153578px,60.629874px) rotate(0deg)} 25% {transform: translate(341.153578px,60.629874px) rotate(90deg)} 50% {transform: translate(341.153578px,60.629874px) rotate(180deg)} 75% {transform: translate(341.153578px,60.629874px) rotate(270deg)} 100% {transform: translate(341.153578px,60.629874px) rotate(360deg)}} #eYfOVGEL7eJ178_to {animation: eYfOVGEL7eJ178_to__to 4000ms linear infinite normal forwards}@keyframes eYfOVGEL7eJ178_to__to { 0% {transform: translate(391.475006px,94.0695px)} 25% {transform: translate(391.475006px,86.363498px)} 50% {transform: translate(391.4104px,102.875633px)} 75% {transform: translate(391.4104px,94.156712px)} 100% {transform: translate(391.4104px,87.006498px)}} #eYfOVGEL7eJ193_to {animation: eYfOVGEL7eJ193_to__to 4000ms linear infinite normal forwards}@keyframes eYfOVGEL7eJ193_to__to { 0% {transform: translate(345.015503px,182.848503px)} 25% {transform: translate(345.138705px,160.125864px)} 50% {transform: translate(345.015503px,182.742387px)} 75% {transform: translate(345.138705px,160.125806px)} 100% {transform: translate(345.015503px,182.742387px)}} #eYfOVGEL7eJ222_tr {animation: eYfOVGEL7eJ222_tr__tr 4000ms linear infinite normal forwards}@keyframes eYfOVGEL7eJ222_tr__tr { 0% {transform: translate(91.539368px,120.564733px) rotate(0deg)} 25% {transform: translate(91.539368px,120.564733px) rotate(-8deg)} 50% {transform: translate(91.539368px,120.564733px) rotate(0deg)} 75% {transform: translate(91.539368px,120.564733px) rotate(-8deg)} 100% {transform: translate(91.539368px,120.564733px) rotate(0deg)}} #eYfOVGEL7eJ235_tr {animation: eYfOVGEL7eJ235_tr__tr 4000ms linear infinite normal forwards}@keyframes eYfOVGEL7eJ235_tr__tr { 0% {transform: translate(209.786301px,125.716022px) rotate(0deg)} 25% {transform: translate(209.786301px,125.716022px) rotate(30deg)} 50% {transform: translate(209.786301px,125.716022px) rotate(0deg)} 75% {transform: translate(209.786301px,125.716022px) rotate(30deg)} 100% {transform: translate(209.786301px,125.716022px) rotate(0deg)}} #eYfOVGEL7eJ315_ts {animation: eYfOVGEL7eJ315_ts__ts 4000ms linear infinite normal forwards}@keyframes eYfOVGEL7eJ315_ts__ts { 0% {transform: translate(168.126244px,223.866158px) scale(1,1)} 25% {transform: translate(168.126244px,223.866158px) scale(0,0)} 50% {transform: translate(168.126244px,223.866158px) scale(1,1)} 75% {transform: translate(168.126244px,223.866158px) scale(0,0)} 100% {transform: translate(168.126244px,223.866158px) scale(1,1)}} #eYfOVGEL7eJ335_tr {animation: eYfOVGEL7eJ335_tr__tr 4000ms linear infinite normal forwards}@keyframes eYfOVGEL7eJ335_tr__tr { 0% {transform: translate(442.583542px,150.696495px) rotate(0deg)} 25% {transform: translate(442.583542px,150.696495px) rotate(90deg)} 50% {transform: translate(442.583542px,150.696495px) rotate(180deg)} 75% {transform: translate(442.583542px,150.696495px) rotate(270deg)} 100% {transform: translate(442.583542px,150.696495px) rotate(360deg)}} #eYfOVGEL7eJ337_tr {animation: eYfOVGEL7eJ337_tr__tr 4000ms linear infinite normal forwards}@keyframes eYfOVGEL7eJ337_tr__tr { 0% {transform: translate(140.640266px,59.968996px) rotate(0deg)} 25% {transform: translate(140.640266px,59.968996px) rotate(90deg)} 50% {transform: translate(140.640266px,59.968996px) rotate(180deg)} 75% {transform: translate(140.640266px,59.968996px) rotate(270deg)} 100% {transform: translate(140.640266px,59.968996px) rotate(360deg)}}
]]></style>
<defs><linearGradient id="eYfOVGEL7eJ128-fill" x1="50.924" y1="116.1338" x2="85.079" y2="165.9889" spreadMethod="pad" gradientUnits="userSpaceOnUse" gradientTransform="translate(0 0)"><stop id="eYfOVGEL7eJ128-fill-0" offset="0%" stop-color="#c77ce1"/><stop id="eYfOVGEL7eJ128-fill-1" offset="100%" stop-color="#ebf4fa"/></linearGradient><linearGradient id="eYfOVGEL7eJ129-fill" x1="347.6654" y1="44.6992" x2="366.2312" y2="84.1843" spreadMethod="pad" gradientUnits="userSpaceOnUse" gradientTransform="translate(0 0)"><stop id="eYfOVGEL7eJ129-fill-0" offset="0%" stop-color="#9bc3ea"/><stop id="eYfOVGEL7eJ129-fill-1" offset="100%" stop-color="#ebf4fa"/></linearGradient><linearGradient id="eYfOVGEL7eJ132-fill" x1="240.3323" y1="51.713" x2="263.8573" y2="160.869" spreadMethod="pad" gradientUnits="userSpaceOnUse" gradientTransform="translate(0 0)"><stop id="eYfOVGEL7eJ132-fill-0" offset="0%" stop-color="#d39bea"/><stop id="eYfOVGEL7eJ132-fill-1" offset="19.27%" stop-color="#d0a2eb"/><stop id="eYfOVGEL7eJ132-fill-2" offset="46.4%" stop-color="#dfb4ef"/><stop id="eYfOVGEL7eJ132-fill-3" offset="78.05%" stop-color="#edd2f5"/><stop id="eYfOVGEL7eJ132-fill-4" offset="100%" stop-color="#f5ebfa"/></linearGradient><linearGradient id="eYfOVGEL7eJ135-fill" x1="196.469" y1="93.5223" x2="214.6348" y2="93.5223" spreadMethod="pad" gradientUnits="userSpaceOnUse" gradientTransform="translate(0 0)"><stop id="eYfOVGEL7eJ135-fill-0" offset="0%" stop-color="#d79bea"/><stop id="eYfOVGEL7eJ135-fill-1" offset="19.27%" stop-color="#e3a2eb"/><stop id="eYfOVGEL7eJ135-fill-2" offset="46.4%" stop-color="#e4b4ef"/><stop id="eYfOVGEL7eJ135-fill-3" offset="78.05%" stop-color="#ebd2f5"/><stop id="eYfOVGEL7eJ135-fill-4" offset="100%" stop-color="#f8ebfa"/></linearGradient><linearGradient id="eYfOVGEL7eJ137-fill" x1="196.469" y1="93.5223" x2="214.6348" y2="93.5223" spreadMethod="pad" gradientUnits="userSpaceOnUse" gradientTransform="translate(0 0)"><stop id="eYfOVGEL7eJ137-fill-0" offset="0%" stop-color="#d79bea"/><stop id="eYfOVGEL7eJ137-fill-1" offset="19.27%" stop-color="#e3a2eb"/><stop id="eYfOVGEL7eJ137-fill-2" offset="46.4%" stop-color="#e4b4ef"/><stop id="eYfOVGEL7eJ137-fill-3" offset="78.05%" stop-color="#ebd2f5"/><stop id="eYfOVGEL7eJ137-fill-4" offset="100%" stop-color="#f8ebfa"/></linearGradient><linearGradient id="eYfOVGEL7eJ139-fill" x1="196.469" y1="93.5223" x2="214.6348" y2="93.5223" spreadMethod="pad" gradientUnits="userSpaceOnUse" gradientTransform="translate(0 0)"><stop id="eYfOVGEL7eJ139-fill-0" offset="0%" stop-color="#d79bea"/><stop id="eYfOVGEL7eJ139-fill-1" offset="19.27%" stop-color="#e3a2eb"/><stop id="eYfOVGEL7eJ139-fill-2" offset="46.4%" stop-color="#e4b4ef"/><stop id="eYfOVGEL7eJ139-fill-3" offset="78.05%" stop-color="#ebd2f5"/><stop id="eYfOVGEL7eJ139-fill-4" offset="100%" stop-color="#f8ebfa"/></linearGradient><linearGradient id="eYfOVGEL7eJ141-fill" x1="196.469" y1="93.5223" x2="214.6348" y2="93.5223" spreadMethod="pad" gradientUnits="userSpaceOnUse" gradientTransform="translate(0 0)"><stop id="eYfOVGEL7eJ141-fill-0" offset="0%" stop-color="#d79bea"/><stop id="eYfOVGEL7eJ141-fill-1" offset="19.27%" stop-color="#e3a2eb"/><stop id="eYfOVGEL7eJ141-fill-2" offset="46.4%" stop-color="#e4b4ef"/><stop id="eYfOVGEL7eJ141-fill-3" offset="78.05%" stop-color="#ebd2f5"/><stop id="eYfOVGEL7eJ141-fill-4" offset="100%" stop-color="#f8ebfa"/></linearGradient><linearGradient id="eYfOVGEL7eJ144-fill" x1="287.4459" y1="125.5417" x2="305.6117" y2="125.5417" spreadMethod="pad" gradientUnits="userSpaceOnUse" gradientTransform="translate(0 0)"><stop id="eYfOVGEL7eJ144-fill-0" offset="0%" stop-color="#e39bea"/><stop id="eYfOVGEL7eJ144-fill-1" offset="19.27%" stop-color="#d7a2eb"/><stop id="eYfOVGEL7eJ144-fill-2" offset="46.4%" stop-color="#e5b4ef"/><stop id="eYfOVGEL7eJ144-fill-3" offset="78.05%" stop-color="#eed2f5"/><stop id="eYfOVGEL7eJ144-fill-4" offset="100%" stop-color="#f7ebfa"/></linearGradient><linearGradient id="eYfOVGEL7eJ146-fill" x1="287.4459" y1="125.5417" x2="305.6117" y2="125.5417" spreadMethod="pad" gradientUnits="userSpaceOnUse" gradientTransform="translate(0 0)"><stop id="eYfOVGEL7eJ146-fill-0" offset="0%" stop-color="#e39bea"/><stop id="eYfOVGEL7eJ146-fill-1" offset="19.27%" stop-color="#d7a2eb"/><stop id="eYfOVGEL7eJ146-fill-2" offset="46.4%" stop-color="#e5b4ef"/><stop id="eYfOVGEL7eJ146-fill-3" offset="78.05%" stop-color="#eed2f5"/><stop id="eYfOVGEL7eJ146-fill-4" offset="100%" stop-color="#f7ebfa"/></linearGradient><linearGradient id="eYfOVGEL7eJ148-fill" x1="287.4459" y1="125.5417" x2="305.6117" y2="125.5417" spreadMethod="pad" gradientUnits="userSpaceOnUse" gradientTransform="translate(0 0)"><stop id="eYfOVGEL7eJ148-fill-0" offset="0%" stop-color="#e39bea"/><stop id="eYfOVGEL7eJ148-fill-1" offset="19.27%" stop-color="#d7a2eb"/><stop id="eYfOVGEL7eJ148-fill-2" offset="46.4%" stop-color="#e5b4ef"/><stop id="eYfOVGEL7eJ148-fill-3" offset="78.05%" stop-color="#eed2f5"/><stop id="eYfOVGEL7eJ148-fill-4" offset="100%" stop-color="#f7ebfa"/></linearGradient><linearGradient id="eYfOVGEL7eJ150-fill" x1="287.4459" y1="125.5417" x2="305.6117" y2="125.5417" spreadMethod="pad" gradientUnits="userSpaceOnUse" gradientTransform="translate(0 0)"><stop id="eYfOVGEL7eJ150-fill-0" offset="0%" stop-color="#e39bea"/><stop id="eYfOVGEL7eJ150-fill-1" offset="19.27%" stop-color="#d7a2eb"/><stop id="eYfOVGEL7eJ150-fill-2" offset="46.4%" stop-color="#e5b4ef"/><stop id="eYfOVGEL7eJ150-fill-3" offset="78.05%" stop-color="#eed2f5"/><stop id="eYfOVGEL7eJ150-fill-4" offset="100%" stop-color="#f7ebfa"/></linearGradient><linearGradient id="eYfOVGEL7eJ154-fill" x1="332.6901" y1="164.5551" x2="420.8981" y2="164.5551" spreadMethod="pad" gradientUnits="userSpaceOnUse" gradientTransform="translate(0 0)"><stop id="eYfOVGEL7eJ154-fill-0" offset="0%" stop-color="#cb9bea"/><stop id="eYfOVGEL7eJ154-fill-1" offset="19.27%" stop-color="#d2a2eb"/><stop id="eYfOVGEL7eJ154-fill-2" offset="46.4%" stop-color="#d6b4ef"/><stop id="eYfOVGEL7eJ154-fill-3" offset="78.05%" stop-color="#e9d2f5"/><stop id="eYfOVGEL7eJ154-fill-4" offset="100%" stop-color="#f5ebfa"/></linearGradient><linearGradient id="eYfOVGEL7eJ157-fill" x1="296.3095" y1="131.82" x2="415.1864" y2="175.5497" spreadMethod="pad" gradientUnits="userSpaceOnUse" gradientTransform="translate(0 0)"><stop id="eYfOVGEL7eJ157-fill-0" offset="0%" stop-color="#d885ee"/><stop id="eYfOVGEL7eJ157-fill-1" offset="19.27%" stop-color="#d4a2eb"/><stop id="eYfOVGEL7eJ157-fill-2" offset="46.4%" stop-color="#dcb4ef"/><stop id="eYfOVGEL7eJ157-fill-3" offset="78.05%" stop-color="#e9d2f5"/><stop id="eYfOVGEL7eJ157-fill-4" offset="100%" stop-color="#f7ebfa"/></linearGradient><linearGradient id="eYfOVGEL7eJ159-fill" x1="296.3095" y1="131.82" x2="415.1864" y2="175.5497" spreadMethod="pad" gradientUnits="userSpaceOnUse" gradientTransform="translate(0 0)"><stop id="eYfOVGEL7eJ159-fill-0" offset="0%" stop-color="#d885ee"/><stop id="eYfOVGEL7eJ159-fill-1" offset="19.27%" stop-color="#d4a2eb"/><stop id="eYfOVGEL7eJ159-fill-2" offset="46.4%" stop-color="#dcb4ef"/><stop id="eYfOVGEL7eJ159-fill-3" offset="78.05%" stop-color="#e9d2f5"/><stop id="eYfOVGEL7eJ159-fill-4" offset="100%" stop-color="#f7ebfa"/></linearGradient><linearGradient id="eYfOVGEL7eJ161-fill" x1="296.3095" y1="131.82" x2="415.1864" y2="175.5497" spreadMethod="pad" gradientUnits="userSpaceOnUse" gradientTransform="translate(0 0)"><stop id="eYfOVGEL7eJ161-fill-0" offset="0%" stop-color="#d885ee"/><stop id="eYfOVGEL7eJ161-fill-1" offset="19.27%" stop-color="#d4a2eb"/><stop id="eYfOVGEL7eJ161-fill-2" offset="46.4%" stop-color="#dcb4ef"/><stop id="eYfOVGEL7eJ161-fill-3" offset="78.05%" stop-color="#e9d2f5"/><stop id="eYfOVGEL7eJ161-fill-4" offset="100%" stop-color="#f7ebfa"/></linearGradient><linearGradient id="eYfOVGEL7eJ163-fill" x1="296.3095" y1="131.82" x2="415.1864" y2="175.5497" spreadMethod="pad" gradientUnits="userSpaceOnUse" gradientTransform="translate(0 0)"><stop id="eYfOVGEL7eJ163-fill-0" offset="0%" stop-color="#d885ee"/><stop id="eYfOVGEL7eJ163-fill-1" offset="19.27%" stop-color="#d4a2eb"/><stop id="eYfOVGEL7eJ163-fill-2" offset="46.4%" stop-color="#dcb4ef"/><stop id="eYfOVGEL7eJ163-fill-3" offset="78.05%" stop-color="#e9d2f5"/><stop id="eYfOVGEL7eJ163-fill-4" offset="100%" stop-color="#f7ebfa"/></linearGradient><linearGradient id="eYfOVGEL7eJ165-fill" x1="293.4584" y1="139.5707" x2="412.3352" y2="183.3004" spreadMethod="pad" gradientUnits="userSpaceOnUse" gradientTransform="translate(0 0)"><stop id="eYfOVGEL7eJ165-fill-0" offset="0%" stop-color="#9bc3ea"/><stop id="eYfOVGEL7eJ165-fill-1" offset="19.27%" stop-color="#a2c7eb"/><stop id="eYfOVGEL7eJ165-fill-2" offset="46.4%" stop-color="#b4d2ef"/><stop id="eYfOVGEL7eJ165-fill-3" offset="78.05%" stop-color="#d2e5f5"/><stop id="eYfOVGEL7eJ165-fill-4" offset="100%" stop-color="#ebf4fa"/></linearGradient><linearGradient id="eYfOVGEL7eJ167-fill" x1="290.6069" y1="147.322" x2="409.4838" y2="191.0517" spreadMethod="pad" gradientUnits="userSpaceOnUse" gradientTransform="translate(0 0)"><stop id="eYfOVGEL7eJ167-fill-0" offset="0%" stop-color="#9bc3ea"/><stop id="eYfOVGEL7eJ167-fill-1" offset="19.27%" stop-color="#a2c7eb"/><stop id="eYfOVGEL7eJ167-fill-2" offset="46.4%" stop-color="#b4d2ef"/><stop id="eYfOVGEL7eJ167-fill-3" offset="78.05%" stop-color="#d2e5f5"/><stop id="eYfOVGEL7eJ167-fill-4" offset="100%" stop-color="#ebf4fa"/></linearGradient><linearGradient id="eYfOVGEL7eJ189-fill" x1="353.1381" y1="216.4548" x2="372.3238" y2="216.4548" spreadMethod="pad" gradientUnits="userSpaceOnUse" gradientTransform="translate(0 0)"><stop id="eYfOVGEL7eJ189-fill-0" offset="0%" stop-color="#dcb7f1"/><stop id="eYfOVGEL7eJ189-fill-1" offset="19.27%" stop-color="#d2a2eb"/><stop id="eYfOVGEL7eJ189-fill-2" offset="46.4%" stop-color="#dcb4ef"/><stop id="eYfOVGEL7eJ189-fill-3" offset="78.05%" stop-color="#ead2f5"/><stop id="eYfOVGEL7eJ189-fill-4" offset="100%" stop-color="#f7e7ff"/></linearGradient><linearGradient id="eYfOVGEL7eJ191-fill" x1="353.254" y1="214.3252" x2="372.3238" y2="214.3252" spreadMethod="pad" gradientUnits="userSpaceOnUse" gradientTransform="translate(0 0)"><stop id="eYfOVGEL7eJ191-fill-0" offset="0%" stop-color="#9bc3ea"/><stop id="eYfOVGEL7eJ191-fill-1" offset="19.27%" stop-color="#a2c7eb"/><stop id="eYfOVGEL7eJ191-fill-2" offset="46.4%" stop-color="#b4d2ef"/><stop id="eYfOVGEL7eJ191-fill-3" offset="78.05%" stop-color="#d2e5f5"/><stop id="eYfOVGEL7eJ191-fill-4" offset="100%" stop-color="#ebf4fa"/></linearGradient><linearGradient id="eYfOVGEL7eJ192-fill" x1="353.1756" y1="222.8636" x2="372.3238" y2="222.8636" spreadMethod="pad" gradientUnits="userSpaceOnUse" gradientTransform="translate(0 0)"><stop id="eYfOVGEL7eJ192-fill-0" offset="0%" stop-color="#9bc3ea"/><stop id="eYfOVGEL7eJ192-fill-1" offset="19.27%" stop-color="#a2c7eb"/><stop id="eYfOVGEL7eJ192-fill-2" offset="46.4%" stop-color="#b4d2ef"/><stop id="eYfOVGEL7eJ192-fill-3" offset="78.05%" stop-color="#d2e5f5"/><stop id="eYfOVGEL7eJ192-fill-4" offset="100%" stop-color="#ebf4fa"/></linearGradient><linearGradient id="eYfOVGEL7eJ220-fill" x1="88.9086" y1="134.7804" x2="177.1166" y2="134.7804" spreadMethod="pad" gradientUnits="userSpaceOnUse" gradientTransform="translate(0 0)"><stop id="eYfOVGEL7eJ220-fill-0" offset="0%" stop-color="#cd9bea"/><stop id="eYfOVGEL7eJ220-fill-1" offset="19.27%" stop-color="#d0a2eb"/><stop id="eYfOVGEL7eJ220-fill-2" offset="46.4%" stop-color="#d8b4ef"/><stop id="eYfOVGEL7eJ220-fill-3" offset="78.05%" stop-color="#e8d2f5"/><stop id="eYfOVGEL7eJ220-fill-4" offset="100%" stop-color="#f4ebfa"/></linearGradient><linearGradient id="eYfOVGEL7eJ223-fill" x1="70.1064" y1="127.3332" x2="180.2015" y2="90.8343" spreadMethod="pad" gradientUnits="userSpaceOnUse" gradientTransform="translate(0 0)"><stop id="eYfOVGEL7eJ223-fill-0" offset="0%" stop-color="#d99bea"/><stop id="eYfOVGEL7eJ223-fill-1" offset="19.27%" stop-color="#d7a2eb"/><stop id="eYfOVGEL7eJ223-fill-2" offset="46.4%" stop-color="#e2b4ef"/><stop id="eYfOVGEL7eJ223-fill-3" offset="78.05%" stop-color="#edd2f5"/><stop id="eYfOVGEL7eJ223-fill-4" offset="100%" stop-color="#f7ebfa"/></linearGradient><linearGradient id="eYfOVGEL7eJ225-fill" x1="83.2484" y1="166.9747" x2="193.3435" y2="130.4758" spreadMethod="pad" gradientUnits="userSpaceOnUse" gradientTransform="translate(0 0)"><stop id="eYfOVGEL7eJ225-fill-0" offset="0%" stop-color="#d59bea"/><stop id="eYfOVGEL7eJ225-fill-1" offset="19.27%" stop-color="#dba2eb"/><stop id="eYfOVGEL7eJ225-fill-2" offset="46.4%" stop-color="#e2b4ef"/><stop id="eYfOVGEL7eJ225-fill-3" offset="78.05%" stop-color="#edd2f5"/><stop id="eYfOVGEL7eJ225-fill-4" offset="100%" stop-color="#f8ebfa"/></linearGradient><linearGradient id="eYfOVGEL7eJ227-fill" x1="83.2484" y1="166.9747" x2="193.3435" y2="130.4758" spreadMethod="pad" gradientUnits="userSpaceOnUse" gradientTransform="translate(0 0)"><stop id="eYfOVGEL7eJ227-fill-0" offset="0%" stop-color="#d59bea"/><stop id="eYfOVGEL7eJ227-fill-1" offset="19.27%" stop-color="#dba2eb"/><stop id="eYfOVGEL7eJ227-fill-2" offset="46.4%" stop-color="#e2b4ef"/><stop id="eYfOVGEL7eJ227-fill-3" offset="78.05%" stop-color="#edd2f5"/><stop id="eYfOVGEL7eJ227-fill-4" offset="100%" stop-color="#f8ebfa"/></linearGradient><linearGradient id="eYfOVGEL7eJ229-fill" x1="83.2484" y1="166.9747" x2="193.3435" y2="130.4758" spreadMethod="pad" gradientUnits="userSpaceOnUse" gradientTransform="translate(0 0)"><stop id="eYfOVGEL7eJ229-fill-0" offset="0%" stop-color="#d59bea"/><stop id="eYfOVGEL7eJ229-fill-1" offset="19.27%" stop-color="#dba2eb"/><stop id="eYfOVGEL7eJ229-fill-2" offset="46.4%" stop-color="#e2b4ef"/><stop id="eYfOVGEL7eJ229-fill-3" offset="78.05%" stop-color="#edd2f5"/><stop id="eYfOVGEL7eJ229-fill-4" offset="100%" stop-color="#f8ebfa"/></linearGradient><linearGradient id="eYfOVGEL7eJ231-fill" x1="83.2484" y1="166.9747" x2="193.3435" y2="130.4758" spreadMethod="pad" gradientUnits="userSpaceOnUse" gradientTransform="translate(0 0)"><stop id="eYfOVGEL7eJ231-fill-0" offset="0%" stop-color="#d59bea"/><stop id="eYfOVGEL7eJ231-fill-1" offset="19.27%" stop-color="#dba2eb"/><stop id="eYfOVGEL7eJ231-fill-2" offset="46.4%" stop-color="#e2b4ef"/><stop id="eYfOVGEL7eJ231-fill-3" offset="78.05%" stop-color="#edd2f5"/><stop id="eYfOVGEL7eJ231-fill-4" offset="100%" stop-color="#f8ebfa"/></linearGradient><linearGradient id="eYfOVGEL7eJ233-fill" x1="83.2484" y1="166.9747" x2="193.3435" y2="130.4758" spreadMethod="pad" gradientUnits="userSpaceOnUse" gradientTransform="translate(0 0)"><stop id="eYfOVGEL7eJ233-fill-0" offset="0%" stop-color="#d59bea"/><stop id="eYfOVGEL7eJ233-fill-1" offset="19.27%" stop-color="#dba2eb"/><stop id="eYfOVGEL7eJ233-fill-2" offset="46.4%" stop-color="#e2b4ef"/><stop id="eYfOVGEL7eJ233-fill-3" offset="78.05%" stop-color="#edd2f5"/><stop id="eYfOVGEL7eJ233-fill-4" offset="100%" stop-color="#f8ebfa"/></linearGradient><linearGradient id="eYfOVGEL7eJ259-fill" x1="218.420945" y1="120.54267" x2="202.841194" y2="131.550872" spreadMethod="pad" gradientUnits="userSpaceOnUse" gradientTransform="translate(0 0)"><stop id="eYfOVGEL7eJ259-fill-0" offset="0%" stop-color="#1c0035"/><stop id="eYfOVGEL7eJ259-fill-1" offset="100%" stop-color="#46008d"/></linearGradient><linearGradient id="eYfOVGEL7eJ260-fill" x1="219.887482" y1="122.618563" x2="204.307827" y2="133.626736" spreadMethod="pad" gradientUnits="userSpaceOnUse" gradientTransform="translate(0 0)"><stop id="eYfOVGEL7eJ260-fill-0" offset="0%" stop-color="#1c0035"/><stop id="eYfOVGEL7eJ260-fill-1" offset="100%" stop-color="#46008d"/></linearGradient><linearGradient id="eYfOVGEL7eJ261-fill" x1="218.924702" y1="121.255771" x2="203.345047" y2="132.263944" spreadMethod="pad" gradientUnits="userSpaceOnUse" gradientTransform="translate(0 0)"><stop id="eYfOVGEL7eJ261-fill-0" offset="0%" stop-color="#1c0035"/><stop id="eYfOVGEL7eJ261-fill-1" offset="100%" stop-color="#46008d"/></linearGradient><linearGradient id="eYfOVGEL7eJ262-fill" x1="220.391239" y1="123.331663" x2="204.81168" y2="134.339808" spreadMethod="pad" gradientUnits="userSpaceOnUse" gradientTransform="translate(0 0)"><stop id="eYfOVGEL7eJ262-fill-0" offset="0%" stop-color="#1c0035"/><stop id="eYfOVGEL7eJ262-fill-1" offset="100%" stop-color="#46008d"/></linearGradient><linearGradient id="eYfOVGEL7eJ263-fill" x1="219.428717" y1="121.968689" x2="203.848737" y2="132.977169" spreadMethod="pad" gradientUnits="userSpaceOnUse" gradientTransform="translate(0 0)"><stop id="eYfOVGEL7eJ263-fill-0" offset="0%" stop-color="#1c0035"/><stop id="eYfOVGEL7eJ263-fill-1" offset="100%" stop-color="#46008d"/></linearGradient><linearGradient id="eYfOVGEL7eJ264-fill" x1="220.895283" y1="124.044678" x2="205.31537" y2="135.053033" spreadMethod="pad" gradientUnits="userSpaceOnUse" gradientTransform="translate(0 0)"><stop id="eYfOVGEL7eJ264-fill-0" offset="0%" stop-color="#1c0035"/><stop id="eYfOVGEL7eJ264-fill-1" offset="100%" stop-color="#46008d"/></linearGradient><linearGradient id="eYfOVGEL7eJ265-fill" x1="219.932503" y1="122.681886" x2="204.352685" y2="133.690213" spreadMethod="pad" gradientUnits="userSpaceOnUse" gradientTransform="translate(0 0)"><stop id="eYfOVGEL7eJ265-fill-0" offset="0%" stop-color="#1c0035"/><stop id="eYfOVGEL7eJ265-fill-1" offset="100%" stop-color="#46008d"/></linearGradient><linearGradient id="eYfOVGEL7eJ329-fill" x1="95.5973" y1="230.3823" x2="130.8052" y2="246.1683" spreadMethod="pad" gradientUnits="userSpaceOnUse" gradientTransform="translate(0 0)"><stop id="eYfOVGEL7eJ329-fill-0" offset="0%" stop-color="#cd9bea"/><stop id="eYfOVGEL7eJ329-fill-1" offset="19.27%" stop-color="#d7a2eb"/><stop id="eYfOVGEL7eJ329-fill-2" offset="46.4%" stop-color="#deb4ef"/><stop id="eYfOVGEL7eJ329-fill-3" offset="78.05%" stop-color="#ead2f5"/><stop id="eYfOVGEL7eJ329-fill-4" offset="100%" stop-color="#f7ebfa"/></linearGradient><linearGradient id="eYfOVGEL7eJ331-fill" x1="90.5467" y1="233.8913" x2="121.1265" y2="235.6595" spreadMethod="pad" gradientUnits="userSpaceOnUse" gradientTransform="translate(0 0)"><stop id="eYfOVGEL7eJ331-fill-0" offset="0%" stop-color="#9bc3ea"/><stop id="eYfOVGEL7eJ331-fill-1" offset="19.27%" stop-color="#a2c7eb"/><stop id="eYfOVGEL7eJ331-fill-2" offset="46.4%" stop-color="#b4d2ef"/><stop id="eYfOVGEL7eJ331-fill-3" offset="78.05%" stop-color="#d2e5f5"/><stop id="eYfOVGEL7eJ331-fill-4" offset="100%" stop-color="#ebf4fa"/></linearGradient><linearGradient id="eYfOVGEL7eJ332-fill" x1="90.1372" y1="240.9724" x2="120.7169" y2="242.7406" spreadMethod="pad" gradientUnits="userSpaceOnUse" gradientTransform="translate(0 0)"><stop id="eYfOVGEL7eJ332-fill-0" offset="0%" stop-color="#9bc3ea"/><stop id="eYfOVGEL7eJ332-fill-1" offset="19.27%" stop-color="#a2c7eb"/><stop id="eYfOVGEL7eJ332-fill-2" offset="46.4%" stop-color="#b4d2ef"/><stop id="eYfOVGEL7eJ332-fill-3" offset="78.05%" stop-color="#d2e5f5"/><stop id="eYfOVGEL7eJ332-fill-4" offset="100%" stop-color="#ebf4fa"/></linearGradient></defs><g transform="translate(0 11.885144)"><g id="eYfOVGEL7eJ3_ts" transform="translate(249.999985,417.713013) scale(0.5,0.5)"><ellipse rx="147.042" ry="12.284" transform="translate(0.000015,-0.000013)" fill="#ebf4fa"/></g><path d="M445.957627,47.300002c68.248735,62.103637,45.614494,113.872909,45.614494,113.872909-7.22,7.41-6.454786,9.728021-19.364357,17.271C430.517764,189.003911,431.49,207.092,419.35,266.572s-64.38,13.35-69.66,60.89c-5.27,47.54-52.77,20.53-68.29,69.06c0,0-49.1,25.46-65.83-29.68s-35.276-47.269-93.326-57.419-8.154624-98.189993-83.920624-100.782993c-14.686-.503-15.562376-9.762697-24.405389-25.751096c0,0-18.004756-52.299703,57.535013-127.823259s306.255889-69.869286,374.504627-7.76565Z" transform="translate(0-6.177932)" fill="#f7ebfa"/><g id="eYfOVGEL7eJ5_to" transform="translate(254.288861,278.398049)"><g transform="translate(-251.897003,-310.361244)"><g><g><g><path d="M312.996,396.824c0,0,22.387,6.35,33.001,6.781l12.711,5.799c1.69.771,2.167,2.948.955,4.355v0c-.681.791-1.748,1.135-2.763.891l-11.323-2.72-28.496.218-4.085-15.324Z" fill="#f2c7c4"/></g><g><path d="M305.497,410.268c1.23,6.899,16.924,4.388,22.365,4.388c4.108,0,11.914-.166,15.492-.247c1.13-.026,2.121-.751,2.491-1.819v0c.552-1.593-.473-3.298-2.138-3.559l-12.715-1.989-19.415-10.592-6.08,13.818Z" fill="#f2c7c4"/></g><g><path d="M319.749,398.883l26.247,3.06l7.982,7.638c.999.956,1.102,2.516.239,3.595v0c-.869,1.087-2.428,1.324-3.581.544l-6.93-4.689-23.959.573v-10.721Z" fill="#f2c7c4"/></g></g></g><path d="M304.185,261.731c10.114,39.932,14.542,120.559,14.542,120.559l-29.694-1.402-3.099-111.541l18.251-7.616Z" fill="#f2c7c4"/><path d="M211.081,258.174c-14.844,41.076-10.622,80.588-30.173,143.746l17.389,8.348c23.586-41.531,36.317-139.982,36.317-139.982l-23.533-12.112Z" fill="#f2c7c4"/><g><g><path d="M190.798,396.824c0,0-22.387,6.35-33.001,6.781l-12.711,5.799c-1.69.771-2.167,2.948-.955,4.355v0c.681.791,1.748,1.135,2.763.891l11.323-2.72l28.496.218l4.085-15.324Z" fill="#f2c7c4"/></g><g><path d="M198.297,410.268c-1.23,6.899-16.924,4.388-22.365,4.388-4.108,0-11.915-.166-15.492-.247-1.13-.026-2.122-.751-2.491-1.819v0c-.552-1.593.473-3.298,2.138-3.559l12.715-1.989l19.415-10.592l6.08,13.818Z" fill="#f2c7c4"/></g><g><path d="M184.045,398.883l-26.247,3.06-7.982,7.638c-.999.956-1.103,2.516-.24,3.595v0c.869,1.087,2.428,1.324,3.581.544l6.929-4.689l23.959.573v-10.721Z" fill="#f2c7c4"/></g></g><path d="M221.894,330.862l-13.901,46.629c0,0-2.338,37.183,43.204,36.346s52.988-28.606,52.988-28.606l-19.69-54.369h-62.601Z" fill="#412253"/><path d="M213.363,360.8c-.622,3.185-.976,4.6-.976,4.6s34.742,17.007,88.293-.944l-.515-6.133-3.56-41.937.021-.011l1.984-.686.375-.129l22.1-7.699c-.869-3.249-1.716-6.348-2.541-9.297-6.809-24.395-11.999-38.731-17.318-43.428-4.546-4.01-11.977-3.099-22.54,1.276-6.058,2.499-13.135,6.144-21.296,10.648c0,0-8.364-5.544-18.197-10.004-8.986-4.085-19.194-7.27-25.327-4.482-8.021,3.635-14.991,30.131-18.218,44.382-1.212,5.383-1.898,9.018-1.898,9.018l23.344,6.144l2.627.686.311.086.107.032c-2.916,26.26-5.457,41.079-6.776,47.878Z" fill="#d029ff"/><path d="M212.387,365.4c0,0,34.742,17.007,88.293-.944l-.515-6.133c-27.022,5.018-68.734,3.474-86.802,2.477-.622,3.184-.976,4.6-.976,4.6Z" fill="#621970"/><path d="M297.441,308.021l1.169,7.667.375-.129l22.1-7.699c-.869-3.249-1.716-6.348-2.541-9.297l-21.103,9.458Z" fill="#772587"/><path d="M238.176,263.489c0,11.538,9.34,20.878,20.867,20.878s20.878-9.34,20.878-20.878c0-2.488-.44-4.868-1.233-7.077-6.058,2.499-13.135,6.144-21.296,10.648c0,0-8.364-5.544-18.197-10.004-.665,2.026-1.019,4.192-1.019,6.433Z" fill="#772587"/><g><path d="M240.979,336.185c1.49-.916,3.83-.63,5.545-.78c1.839-.16,3.672-.372,5.5-.628c3.696-.517,7.348-1.256,10.971-2.146c7.276-1.787,14.34-4.217,21.056-7.552c1.638-.813,3.052,1.61,1.415,2.492-6.816,3.675-14.014,6.758-21.472,8.869-3.734,1.057-7.557,1.855-11.39,2.454-1.857.29-3.726.518-5.597.704-1.902.189-4.267.756-6.029-.106-1.36-.665-1.162-2.593.001-3.307Z" fill="#772587"/><path d="M241.046,325.273c1.599-.594,3.684.146,5.342.304c1.839.176,3.691.273,5.538.274c3.619.003,7.269-.324,10.809-1.08c1.693-.362,2.359,2.115.684,2.609-3.766,1.113-7.573,1.864-11.493,2.141-1.914.135-3.827.161-5.743.062-1.982-.103-4.345-.023-5.946-1.323-1.157-.938-.314-2.57.809-2.987Z" fill="#772587"/></g><g><g><path d="M242.497,369.79c-7.191-9.422-52.963-53.907-66.837-32.284-13.874,21.624,3.781,53.322,35.495,68.602c31.715,15.281,58.935-.167,31.342-36.318Z" fill="#412253"/><path d="M173.94,354.439c4.602,10.597,12.197,19.535,20.59,27.333c4.42,4.107,9.133,7.884,13.954,11.507c4.639,3.487,9.324,6.962,14.141,10.2s9.981,5.867,15.892,6.093c1.301.049,1.152,1.863-.073,1.965-5.346.444-10.477-2.004-14.909-4.756-4.925-3.058-9.579-6.622-14.236-10.068-9.736-7.203-19.223-14.941-26.539-24.682-3.982-5.302-7.239-10.999-9.51-17.236-.167-.456.486-.826.69-.356Z" fill="#6d3a85"/><path d="M228.328,355.022c8.305,6.344,15.598,14.228,20.653,23.428c1.429,2.601,2.702,5.285,3.823,8.033.553,1.355-1.533,2.297-2.081.932-3.821-9.523-9.408-18.322-16.455-25.779-2.003-2.12-4.12-4.154-6.371-6.01-.366-.301.048-.896.431-.604Z" fill="#693a85"/><g><path d="M310.943,432.115l13.39-34.476c-4.699-1.393-8.76-1.799-8.76-1.799l-17.4,33.015c10.313,4.086,12.77,3.26,12.77,3.26Z" fill="#fff"/><path d="M302.248,426.339c-1.261.993-2.616,1.845-4.069,2.531-1.882-.749-4.328-1.808-7.337-3.087-2.794-1.192-6.077-2.613-9.815-4.205-4.05-1.73-8.649-3.668-13.779-5.768-.119-6.308.682-13.284,2.688-19.32l.013-.001c10.365,2.056,26.906-.44,38.822-.868c3.07-.119,5.485-.076,6.799.225c1.394,1.704-1.868,21.519-13.322,30.493Z" fill="#693a85"/><path d="M250.235,389.86c-1.534-.718-3.165-1.5-4.926-2.393c1.76.892,3.393,1.687,4.926,2.393Z" fill="#e0954a"/><path d="M234.695,381.924l.002.013c.575.307,1.137.604,1.686.902-.552-.31-1.113-.607-1.688-.915Z" fill="#e0954a"/><path d="M269.936,396.49c-2.007,6.036-2.808,13.012-2.688,19.32-8.768-3.602-20.189-4.666-31.79-8.971l-.766-24.901c.576.308,1.137.604,1.686.903c1.11.595,2.19,1.156,3.217,1.698c1.014.544,1.998,1.053,2.954,1.541c0,0,0,0,.012-.002.943.489,1.858.957,2.731,1.391.012-.002.012-.002.012-.002c1.761.893,3.394,1.688,4.926,2.394c2.688,1.257,5.049,2.262,7.263,3.109.617.238,1.233.464,1.835.679.306.1.614.213.919.301.589.217,1.173.396,1.758.575.292.09.584.179.889.267.57.168,1.14.336,1.721.49c1.742.449,3.477.848,5.321,1.208Z" fill="#f2c7c4"/><polygon points="235.462,406.837 234.696,381.937 234.695,381.924 234.682,381.926" fill="#f2c7c4"/><g><path d="M290.983,425.862c-2.881-1.233-6.256-2.691-10.096-4.323c3.133-1.059,8.746.132,10.096,4.323Z" fill="#fff"/><path d="M315.577,395.846c3.001,4.415-.392,23.688-13.32,30.494-4.658-13.624.517-31.257,13.32-30.494Z" fill="#fff"/><path d="M270.794,387.839c-1.304.1-2.228,1.137-2.513,2.497-.624,2.977,1.552,6.672,3.32,8.974c1.758,2.29,3.904,4.088,6.307,5.288-1.939.096-3.816.547-5.561,1.427-2.523,1.273-4.992,3.398-6.236,6.184-1.12,2.507-.712,6.475,2.206,7.709c2.898,1.225,5.711-1.39,7.501-3.314c2.094-2.25,4.002-5.345,4.782-8.662-.172,2.198-.094,4.441.155,6.673.04.355.497.326.487-.017-.073-2.493.141-4.944.501-7.357.178-1.19.405-2.366.702-3.515.282-1.092.814-2.216.936-3.356.059-.554-.645-1.004-.956-.534-.518.784-.755,1.869-.976,2.86-.445-5.117-3.291-10.486-7.177-13.478-1.017-.781-2.268-1.472-3.478-1.379Zm5.545,25.949c-1.46,2.05-3.624,4.61-6.154,5.01-1.269.201-2.48-.436-3.079-1.808-.633-1.449-.38-3.007.239-4.271c1.165-2.382,3.309-4.178,5.5-5.326c2.135-1.118,4.543-1.646,6.993-1.615-.007.016-.018.025-.024.044-.903,2.882-1.772,5.574-3.475,7.966Zm-2.263-23.139c1.884,1.673,3.439,3.834,4.509,6.201c1.081,2.392,1.61,4.951,1.822,7.518-.037-.023-.068-.052-.111-.068-2.446-.917-4.741-2.538-6.618-4.579-1.773-1.928-3.451-4.555-4.042-7.19-.307-1.368-.059-3.201,1.411-3.329c1.076-.095,2.183.695,3.029,1.447Z" fill="#fff"/><path d="M286.327,401.868c-1.464,4.518-1.366,9.803-.103,14.639.1.383.687.277.605-.114-.493-2.357-.71-4.77-.644-7.131.067-2.392.492-4.632,1.076-6.872.055-.212.042-.518-.163-.673-.079-.06-.145-.11-.237-.132-.211-.052-.461.058-.534.283Z" fill="#fff"/><path d="M292.292,401.783c-1.939,4.331-2.826,9.455-2.909,14.433-.01.58.792.811.832.211.161-2.429.5-4.838,1-7.175.513-2.398,1.299-4.633,2.111-6.892.258-.717-.728-1.26-1.034-.577Z" fill="#fff"/><path d="M297.544,401.93c-.054.011-.108.022-.162.033-.188.038-.279.246-.322.428-.286,1.225-.706,2.394-.976,3.629-.269,1.232-.483,2.484-.646,3.748-.322,2.494-.418,5.009-.285,7.571.026.499.798.593.8.088.01-2.487.162-4.978.502-7.401.164-1.172.373-2.332.625-3.475.278-1.257.53-2.581.998-3.752.074-.185.041-.413-.073-.591-.028-.043-.056-.086-.083-.129-.095-.147-.24-.177-.378-.149Z" fill="#fff"/></g><polygon points="234.423,409.213 250.535,413.091 258.068,390.337 230.978,374.502" fill="#603470"/></g></g><g><path d="M314.209,351.988c-11.433,3.126-69.852,28.841-55.022,49.82s50.838,16.522,76.911-7.133s21.978-54.684-21.889-42.687Z" fill="#412253"/><g><path d="M206.625,436.078L192.015,402.1c4.647-1.56,8.69-2.11,8.69-2.11l18.564,32.375c-10.16,4.451-12.644,3.713-12.644,3.713Z" fill="#fff"/><path d="M246.333,399.014c2.221,5.961,3.269,12.904,3.375,19.212-5.052,2.28-9.58,4.382-13.565,6.255-3.679,1.724-6.91,3.261-9.659,4.552-2.962,1.385-5.368,2.53-7.222,3.346-1.477-.634-2.862-1.437-4.157-2.384-11.766-8.56-15.731-28.246-14.398-30c1.302-.347,3.714-.476,6.786-.467c11.923.004,28.543,1.909,38.828-.515l.012.001Z" fill="#693a85"/><path d="M265.789,391.688c1.508-.773,3.11-1.612,4.838-2.567-1.728.954-3.331,1.807-4.838,2.567Z" fill="#e0954a"/><path d="M281.037,383.204l-.001.012c-.564.328-1.115.645-1.652.962.538-.33,1.089-.646,1.653-.974Z" fill="#e0954a"/><path d="M281.157,408.129c-11.44,4.715-22.816,6.185-31.45,10.097-.105-6.308-1.154-13.251-3.375-19.212c1.83-.425,3.55-.885,5.274-1.396.575-.174,1.139-.363,1.702-.551.301-.099.59-.198.879-.298.577-.2,1.155-.399,1.736-.637.301-.099.605-.222.908-.334.594-.236,1.201-.484,1.81-.744c2.182-.925,4.507-2.014,7.148-3.366c1.506-.76,3.11-1.612,4.838-2.567c0,0,.011.014.013.001.856-.465,1.754-.965,2.68-1.488.012.001.012.001.012.001.938-.521,1.903-1.065,2.897-1.645c1.007-.578,2.066-1.177,3.154-1.811.538-.318,1.088-.634,1.652-.962l.122,24.912Z" fill="#f2c7c4"/><polygon points="281.157,408.129 281.036,383.216 281.037,383.204 281.05,383.205" fill="#f2c7c4"/><g><path d="M226.349,429.118c2.835-1.335,6.156-2.912,9.936-4.68-3.169-.946-8.736.443-9.936,4.68Z" fill="#fff"/><path d="M200.701,399.997c-2.842,4.519,1.235,23.659,14.397,30c4.171-13.781-1.629-31.218-14.397-30Z" fill="#fff"/><path d="M241.745,391.904c-3.777,3.128-6.43,8.595-6.693,13.724-.256-.982-.532-2.059-1.077-2.823-.327-.459-1.015.016-.937.568.162,1.135.734,2.24,1.055,3.321.337,1.138.606,2.305.826,3.488.446,2.399.747,4.841.763,7.335.002.342.46.356.487-.001.17-2.24.168-4.484-.082-6.675.897,3.287,2.915,6.312,5.087,8.486c1.858,1.859,4.762,4.372,7.615,3.045c2.873-1.337,3.139-5.317,1.93-7.783-1.342-2.739-3.885-4.775-6.453-5.957-1.775-.818-3.667-1.202-5.608-1.229c2.358-1.284,4.439-3.158,6.115-5.509c1.685-2.363,3.728-6.134,2.998-9.086-.333-1.348-1.294-2.352-2.6-2.406-1.213-.051-2.439.683-3.426,1.502Zm-4.949,16.789c-.006-.018-.018-.027-.026-.043c2.447-.119,4.873.323,7.046,1.365c2.23,1.068,4.437,2.787,5.687,5.126.663,1.242.972,2.789.391,4.26-.55,1.392-1.737,2.071-3.013,1.916-2.542-.309-4.796-2.791-6.328-4.788-1.787-2.329-2.751-4.988-3.757-7.836Zm8.171-16.923c1.474.076,1.787,1.899,1.529,3.277-.497,2.655-2.081,5.34-3.784,7.329-1.803,2.107-4.04,3.808-6.451,4.812-.043.018-.073.048-.109.072.121-2.573.559-5.149,1.553-7.578.985-2.404,2.461-4.618,4.285-6.357.82-.781,1.898-1.61,2.977-1.555Z" fill="#fff"/><path d="M230.147,404.974c1.624,4.463,1.715,9.748.624,14.626-.087.387-.677.301-.609-.092.409-2.373.54-4.793.39-7.149-.152-2.388-.657-4.611-1.32-6.83-.063-.21-.061-.517.139-.678.077-.062.14-.115.232-.141.21-.06.464.041.544.264Z" fill="#fff"/><path d="M224.183,405.101c2.092,4.26,3.161,9.349,3.421,14.32.03.58-.763.838-.824.241-.247-2.422-.672-4.817-1.255-7.135-.598-2.378-1.463-4.584-2.355-6.812-.283-.708.683-1.286,1.013-.614Z" fill="#fff"/><path d="M218.939,405.435c.054.009.109.018.163.027.189.031.288.236.337.416.329,1.214.791,2.368,1.104,3.592.313,1.221.571,2.465.779,3.723.411,2.481.596,4.991.555,7.556-.008.499-.777.621-.796.116-.098-2.485-.339-4.969-.765-7.379-.206-1.166-.455-2.317-.749-3.451-.323-1.246-.622-2.56-1.131-3.714-.081-.183-.056-.412.052-.593.026-.044.053-.088.079-.132.09-.149.234-.184.372-.161Z" fill="#fff"/></g></g><path d="M281.373,379.633c-.633.192-29.974,15.527-29.974,15.527l8.474,21.441l28.461-6.056-6.961-30.912Z" fill="#603470"/><path d="M251.982,394.956c3.521-2.067,7.23-3.761,10.995-5.329-.019-.49-.023-.981.002-1.472.241-4.68,2.37-9.159,5.674-12.452.305-.305.784.15.485.463-3.088,3.234-4.723,7.618-4.559,12.083.072,1.959.467,3.917,1.197,5.738.352.877.768,1.73,1.247,2.544.523.887,1.344,1.701,1.688,2.668.291.82-.755,1.635-1.485,1.176-.938-.589-1.542-1.775-2.06-2.732-.538-.992-.998-2.039-1.332-3.117-.325-1.049-.567-2.126-.714-3.215-3.409,1.61-6.696,3.474-9.933,5.403c1.94,5.887,4.218,11.669,6.752,17.325c4.079-1.934,8.768-3.05,13.283-2.816-.589-.654-1.12-1.359-1.554-2.126-.981-1.733-1.45-3.598-1.619-5.57-.031-.363.575-.457.641-.091.313,1.751,1.183,3.421,2.271,4.817.396.508.853.973,1.327,1.416.124-.047.259-.082.419-.08c11.368.135,22.676-2.092,33.223-6.311c10.481-4.193,20.209-10.175,28.52-17.825c4.703-4.329,9.07-9.149,12.674-14.437.285-.418.978-.05.698.383-3.139,4.848-6.641,9.432-10.68,13.569-4.049,4.147-8.535,7.881-13.301,11.176-9.514,6.578-20.285,11.238-31.586,13.698-5.61,1.221-11.34,1.903-17.08,2.002.251.321.322.758.109,1.146-.276.504-.919.678-1.42.414-.41-.216-.808-.49-1.189-.79-.124.254-.366.447-.758.444-2.441-.018-4.805.095-7.196.635-2.359.533-4.62,1.371-6.763,2.49-.427.223-1.108.168-1.337-.335-2.867-6.283-5.162-12.778-6.964-19.442-.285-.458-.273-1.099.325-1.45Z" fill="#653a85"/></g></g><path d="M222.103,296.215c4.679-.527,9.397.324,14.088.606c4.626.278,9.261.408,13.895.39c9.314-.037,18.63-.69,27.874-1.815c5.254-.64,10.522-1.304,15.796-1.74c1.803-.149,1.697,2.424.255,2.914-8.953,3.039-18.534,4.268-27.927,4.99-9.412.724-18.871.838-28.298.335-2.571-.137-5.14-.32-7.704-.549-2.816-.251-5.47-.507-8.128-1.504-1.586-.594-1.872-3.399.149-3.627Z" fill="#ebf4fa"/><path d="M220.766,307.627c9.821,1.219,19.568,2.731,29.467,3.304c9.785.566,19.606.441,29.383-.132c5.625-.329,11.264-.467,16.849-1.202c1.65-.217,2.2,2.131.534,2.463-4.869.97-9.716,2.158-14.651,2.784-5.06.643-10.154,1.036-15.257,1.207-10.062.338-20.184.015-30.19-1.145-5.717-.663-11.393-1.484-16.955-2.934-2.512-.652-1.813-4.671.82-4.345Z" fill="#ebf4fa"/><path d="M294.396,292.913c-.172.429-.043.826.204,1.126.011.086.011.172.021.257.268,3.785.525,7.581.836,11.366.161,1.844.311,3.699.472,5.555.139,1.716.182,3.496.697,5.158l2.359-.815c.086-1.448-.096-2.884-.225-4.343-.172-1.941-.343-3.882-.515-5.823-.322-3.699-.708-7.399-1.083-11.098-.022-.204-.043-.407-.064-.611.633-.933,1.094-2.016,1.523-3.034.483-1.158.922-2.338,1.308-3.539.783-2.423,1.319-4.932,1.662-7.463.064-.493-.129-1.008-.676-1.137-.461-.118-1.062.161-1.147.665-.397,2.445-1.051,4.825-1.984,7.12-.354.869-.772,1.716-1.201,2.552-.633-5.769-1.34-11.527-1.995-17.296-.086-.815-1.351-.858-1.308,0c.418,7.034.751,14.079,1.233,21.113-.042.086-.085.161-.117.247Z" fill="#772587"/><path d="M215.272,284.828c.568,2.413,1.072,4.836,1.651,7.249.29,1.19.568,2.37.868,3.549.236.986.332,2.338,1.029,3.131-.236,2.316-.482,4.632-.761,6.938-.247,2.134-.675,4.279-.965,6.423l2.938.772c.408-2.381.568-4.857.826-7.195.343-3.195.547-6.391.611-9.608.139-6.627.075-13.178-.418-19.784-.064-.89-1.415-.911-1.394,0c.139,5.447.075,10.98-.311,16.438-.118-.397-.236-.804-.365-1.201-.718-2.38-1.523-4.729-2.252-7.099-.289-.922-1.683-.557-1.457.387Z" fill="#772587"/><path d="M193.751,305.973l23.344,6.144l2.627.686l1.137-7.109-25.21-8.739c-1.212,5.383-1.898,9.018-1.898,9.018Z" fill="#772587"/><g><g><path d="M286.228,237.496l-7.158,1.727c-3.743.903-7.509-1.399-8.412-5.142l-2.145-8.893c-.903-3.743,1.4-7.509,5.142-8.411l7.158-1.727c3.743-.903,7.509,1.399,8.411,5.142l2.145,8.893c.904,3.742-1.398,7.508-5.141,8.411Z" fill="#fff"/><g><path d="M277.273,238.962c-2.897,0-5.397-1.971-6.078-4.792l-2.245-9.308c-.81-3.355,1.262-6.742,4.616-7.551l2.628-.634c.484-.117.98-.176,1.474-.176c2.897,0,5.397,1.971,6.078,4.792l2.244,9.307c.393,1.625.129,3.305-.743,4.732-.872,1.426-2.247,2.427-3.872,2.819l-2.628.634c-.485.118-.981.177-1.474.177Z" fill="#d9dade"/><g><path d="M277.668,217.002v0c2.666,0,4.966,1.813,5.592,4.41l2.245,9.307c.745,3.087-1.161,6.203-4.247,6.948l-2.628.634c-.446.108-.902.162-1.356.162-2.666,0-4.966-1.813-5.592-4.409l-2.245-9.308c-.361-1.495-.117-3.041.685-4.353s2.067-2.234,3.563-2.594l2.628-.634c.444-.109.901-.163,1.355-.163m-.001-1c-.525,0-1.058.062-1.59.19l-2.628.634c-3.628.875-5.86,4.526-4.985,8.154l2.245,9.308c.747,3.096,3.514,5.175,6.564,5.175.525,0,1.058-.062,1.591-.19l2.628-.634c3.628-.875,5.86-4.526,4.985-8.155l-2.245-9.307c-.747-3.096-3.515-5.176-6.565-5.175v0Z" fill="#b451c7"/></g></g></g><g id="eYfOVGEL7eJ81_tr" transform="translate(250.990913,230.079414) rotate(0)"><g transform="translate(-250.990913,-230.079414)"><path d="M232.066,236.842c-5.075-5.652-8.175-14.556-8.175-14.556-2.81.816-5.725-1.934-3.503-5.052-4.924-.1,2.842-16.04,13.064-12.679l8.254,29.327-9.64,2.96Z" fill="#321242"/><path d="M273.39,198.318c8.653,10.801,7.487,25.584,7.487,25.584l-14.122-21.735l6.635-3.849Z" fill="#345870"/><path d="M270.93,234.784l.244,10.018.284,11.522.291,6.026c.322,6.653-4.59,12.407-11.211,13.134v0c-6.671.732-12.746-3.894-13.814-10.52l-5.683-35.256l29.889,5.076Z" fill="#f2c7c4"/><path d="M271.239,242.679l.29,15.106c-12.765,1.278-21.526-7.966-23.855-14.92c5.487-1.851,23.565-.186,23.565-.186Z" fill="#562c6a"/><path d="M234.567,233.971c-2.641-.27-5.584.801-6.79,3.166-1.005,1.97-.625,4.376.203,6.426c1.068,2.645,2.889,5.035,5.341,6.49c2.453,1.456,5.56,1.895,8.223.875c2.664-1.02,4.748-3.59,4.901-6.438.293-5.464-7.132-10.034-11.878-10.519Z" fill="#f2c7c4"/><path d="M240.294,242.626c-2.57-1.784-5.276-1.68-8.178-.927-.43.112-.334.847.125.787c2.378-.309,5.143,1.057,6.84,2.303.241.177.685.188.957.107.286-.085.594-.312.731-.583.326-.648.096-1.29-.475-1.687Z" fill="#345870"/><g><path d="M270.908,203.976c-2.616-2.088-5.886-3.017-9.365-3.084-8.872-.189-19.125,5.244-23.434,11.662-6.3,9.378-4.29,20.592,1.997,28.958c2.872,3.859,6.661,7.12,10.96,9.306c7.53,3.843,17.235,4.674,24.041-.341c4.916-3.609,7.57-9.77,7.945-15.868.638-10.306-3.839-23.998-12.144-30.633Z" fill="#f2c7c4"/><path d="M274.848,222.152c.548,1.17.313,2.476-.524,2.917-.837.44-1.96-.151-2.508-1.321s-.313-2.476.524-2.917c.838-.441,1.96.151,2.508,1.321Z" fill="#345870"/><path d="M261.809,227.733c.548,1.17.314,2.476-.524,2.917-.837.441-1.96-.151-2.508-1.321s-.313-2.476.524-2.917c.837-.44,1.96.151,2.508,1.321Z" fill="#345870"/><path d="M272.389,227.707c-2.131-2.487-4.377-4.843-6.654-7.191-.221-.228-.603.058-.394.312c1.694,2.057,3.394,4.077,5.181,6.058.864.958,1.952,1.937,2.411,3.172.384,1.033-.037,2.048-.603,2.906-.147.223.019.563.308.508.998-.188,1.546-1.295,1.506-2.241-.056-1.358-.905-2.532-1.755-3.524Z" fill="#345870"/><path d="M275.514,209.73c-1.27-1.755-6.875.497-7.148,2.658-.355,2.811,9.333.361,7.148-2.658Z" fill="#345870"/><path d="M255.726,218.524c-1.673-1.905-7.878,1.266-7.964,3.813-.15,4.426,10.016-1.476,7.964-3.813Z" fill="#345870"/><g><path d="M264.768,237.822c.088-.589,5.125-1.029,5.699-.446.365.371-.533,2.537-2.69,2.67-1.78.11-3.111-1.54-3.009-2.224Z" fill="#fff"/></g></g><path d="M240.591,212.559c4.99,7.828,6.121,25.658.049,23.535s-8.253-2.043-8.253-2.043c-21.035-20.558-5.768-37.385,8.204-21.492Z" fill="#562c6a"/><path d="M241.588,214.59c4.447-11.592,10.465-13.579,23.519-7.514c3.856,1.792,14.412,1.412,14.969-3c.366-2.902-3.081-3.8-3.081-3.8c6.768-1.987,3.835-8.224-1.44-5.311c8.747-7.415,1.912-13.439-3.672-8.661-4.303,3.682-7.715,5.241-13.81,3.638-9.07-2.385-24.611,1.669-25.855,16.667l9.37,7.981Z" fill="#562c6a"/></g></g><g id="eYfOVGEL7eJ99_tr" transform="translate(263.364197,219.360725) rotate(0)"><g transform="translate(-263.364197,-219.360725)"><path d="M251.604,233.958l29.006-7.272c5.697-1.435,9.083-7.487,7.564-13.517v0c-1.519-6.03-7.369-9.755-13.066-8.32l-29.006,7.272c-5.697,1.435-9.083,7.487-7.564,13.517v0c1.52,6.03,7.37,9.755,13.066,8.32Z" fill="#fff"/><g><g><path d="M277.82,205.456c4.277,0,8.224,3.346,9.385,7.957c1.382,5.486-1.489,10.955-6.399,12.192l-22.261,5.573c-.664.167-1.346.252-2.028.252-4.277,0-8.224-3.346-9.385-7.957-1.382-5.486,1.489-10.956,6.399-12.193l22.26-5.573c.665-.167,1.347-.251,2.029-.251m0-1c-.754,0-1.515.091-2.272.282l-22.259,5.572c-5.455,1.374-8.645,7.377-7.126,13.407c1.308,5.192,5.682,8.713,10.355,8.713.754,0,1.515-.092,2.272-.282l22.259-5.573c5.455-1.374,8.645-7.377,7.126-13.407v0c-1.308-5.192-5.683-8.712-10.355-8.712v0Z" fill="#a451c7"/></g></g><path d="M279.601,222.704l-9.262,2.32-3.092.774-1.313.335-5.41,1.352-.295.076c-.399.099-.807.168-1.203.199-3.418.265-6.63-1.961-7.498-5.4-.967-3.845,1.356-7.741,5.201-8.709l9.808-2.453l5.402-1.352l1.321-.336l2.841-.709c.081-.021.163-.035.244-.049.325-.078.645-.125.959-.15c3.418-.265,6.63,1.961,7.498,5.4.968,3.838-1.356,7.734-5.201,8.702Z" fill="#d9dade"/><g><polygon points="272.514,208.577 265.594,227.344 259.361,228.903 266.289,210.135" fill="#fff"/><path d="M277.592,207.316l-6.921,18.75-3.563.892l6.928-18.768l3.274-.817c.094-.025.188-.04.282-.057Z" fill="#fff"/></g><path d="M277.825,217.5l-16.097,4.019c-.984.246-1.98-.353-2.226-1.337v0c-.246-.984.353-1.98,1.336-2.226l16.097-4.019c.984-.246,1.98.353,2.226,1.337v0c.246.984-.352,1.981-1.336,2.226Z" fill="#e47272"/></g></g><g><path d="M243.958,249.832l-6.992,2.309c-3.656,1.207-7.598-.777-8.806-4.433l-2.869-8.687c-1.207-3.656.777-7.598,4.433-8.806l6.991-2.309c3.656-1.207,7.598.777,8.806,4.433l2.869,8.687c1.209,3.656-.776,7.599-4.432,8.806Z" fill="#fff"/><path d="M231.807,234.219l.792-.261c2.394-.791,4.975.509,5.766,2.903l1.585,4.799c.79,2.394-.509,4.975-2.902,5.766l-.792.262c-2.394.791-4.975-.509-5.765-2.902l-1.585-4.799c-.792-2.396.507-4.978,2.901-5.768Z" fill="#d9dade"/><g><g><path d="M234.21,230.092v0c2.489,0,4.686,1.589,5.467,3.954l3.002,9.091c.996,3.015-.647,6.278-3.662,7.274l-2.567.848c-.587.194-1.195.292-1.807.292-2.488,0-4.685-1.589-5.466-3.954l-3.003-9.092c-.482-1.46-.367-3.021.325-4.395s1.877-2.396,3.337-2.878l2.567-.848c.588-.194,1.196-.292,1.807-.292m0-1c-.702,0-1.417.11-2.12.343l-2.567.848c-3.544,1.17-5.468,4.992-4.298,8.536l3.003,9.092c.938,2.841,3.579,4.64,6.416,4.64.702,0,1.417-.111,2.121-.343l2.567-.848c3.544-1.171,5.468-4.993,4.298-8.537l-3.002-9.091c-.94-2.84-3.581-4.64-6.418-4.64v0Z" fill="#a451c7"/></g></g></g></g></g></g><g><g><path d="M155.527,325.935c-3.197,0-3.198,4.961,0,4.961c3.197,0,3.198-4.961,0-4.961Z" fill="#e8f0f8"/><path d="M257.771,435.435c-3.197,0-3.198,4.961,0,4.961c3.197,0,3.198-4.961,0-4.961Z" fill="#e8f0f8"/><path d="M377.166,314.721c-3.197,0-3.198,4.961,0,4.961c3.196,0,3.198-4.961,0-4.961Z" fill="#e8f0f8"/><path d="M452.365,207.859c-3.197,0-3.198,4.961,0,4.961c3.196,0,3.198-4.961,0-4.961Z" fill="#e8f0f8"/><path d="M71.094,253.374c-3.197,0-3.198,4.961,0,4.961c3.196,0,3.198-4.961,0-4.961Z" fill="#e8f0f8"/><path d="M30.856,235.891c-4.475,0-4.477,6.945,0,6.945c4.475.001,4.477-6.945,0-6.945Z" fill="#e8f0f8"/><path d="M432.575,288.662c-4.475,0-4.477,6.945,0,6.945c4.476.001,4.478-6.945,0-6.945Z" fill="#e8f0f8"/></g><g><g id="eYfOVGEL7eJ125_ts" transform="translate(381.482986,372.964005) scale(2,2)"><path d="M380.548,368.862l.878-5.274.942,5.262c.292,1.633,1.581,2.906,3.217,3.178l5.274.878-5.262.943c-1.633.293-2.906,1.581-3.178,3.217l-.878,5.274-.943-5.262c-.293-1.633-1.581-2.906-3.218-3.178l-5.273-.878l5.262-.943c1.634-.292,2.907-1.58,3.179-3.217Z" transform="translate(-381.482986,-372.964005)" fill="#e6bc7a"/></g><g id="eYfOVGEL7eJ126_ts" transform="translate(101.744495,314.694504) scale(0,0)"><path d="M100.88,310.901l.812-4.876.871,4.866c.27,1.51,1.462,2.687,2.975,2.939l4.876.811-4.866.872c-1.51.271-2.687,1.461-2.939,2.975l-.812,4.876-.871-4.866c-.271-1.51-1.462-2.687-2.975-2.939l-4.876-.811l4.866-.872c1.51-.271,2.687-1.462,2.939-2.975Z" transform="translate(-101.744495,-314.694504)" fill="#e6bc7a"/></g></g></g><g><path d="M95.107,136.187l-8.303-4.963-3.579,5.988c-1.688-.489-3.409-.738-5.126-.751l-1.704-6.767-9.38,2.362l1.704,6.768c-1.506.825-2.904,1.86-4.159,3.09l-5.988-3.579-4.963,8.303l5.988,3.579c-.489,1.688-.738,3.409-.752,5.126l-6.767,1.704l2.362,9.38l6.767-1.704c.825,1.506,1.86,2.904,3.09,4.159l-3.579,5.988l8.303,4.962l3.579-5.988c1.688.489,3.41.738,5.127.751l1.704,6.767L88.811,179l-1.704-6.767c1.506-.825,2.904-1.86,4.159-3.09l5.988,3.579l4.963-8.303-5.988-3.579c.489-1.688.738-3.41.752-5.126l6.767-1.704-2.362-9.38-6.767,1.704c-.825-1.506-1.86-2.904-3.09-4.159l3.578-5.988ZM81.774,149.069c3.562,2.129,4.727,6.758,2.598,10.32s-6.759,4.728-10.32,2.599c-3.562-2.129-4.728-6.758-2.599-10.321c2.129-3.562,6.759-4.727,10.321-2.598Z" opacity="0.4" fill="url(#eYfOVGEL7eJ128-fill)"/><path d="M369.977,54.132l-8.685-1.17-.844,6.263c-1.58.195-3.102.603-4.537,1.204l-3.834-5.028-6.969,5.314l3.834,5.028c-.959,1.224-1.755,2.585-2.361,4.057l-6.264-.844-1.17,8.685l6.264.844c.195,1.58.602,3.102,1.203,4.537l-5.028,3.834l5.314,6.969l5.028-3.834c1.224.959,2.585,1.755,4.057,2.361l-.844,6.264l8.685,1.17.844-6.263c1.58-.195,3.102-.602,4.537-1.203l3.834,5.028l6.969-5.314-3.833-5.028c.959-1.224,1.755-2.585,2.361-4.057l6.264.844l1.17-8.685-6.264-.844c-.195-1.58-.602-3.103-1.203-4.537l5.028-3.834-5.314-6.968-5.027,3.833c-1.225-.96-2.585-1.755-4.057-2.361l.842-6.265Zm-6.236,13.473c4.835.651,8.238,5.115,7.587,9.95s-5.115,8.239-9.949,7.587c-4.835-.651-8.239-5.115-7.587-9.95.65-4.835,5.114-8.238,9.949-7.587Z" opacity="0.4" fill="url(#eYfOVGEL7eJ129-fill)"/><g><g opacity="0.4"><path d="M188.179,65.041v71.606c16.075-2.101,33.518-3.25,51.735-3.25c27.237,0,52.728,2.561,74.562,7.034v-71.617c-21.833-4.463-47.325-7.024-74.562-7.024-18.217.001-35.661,1.15-51.735,3.251Z" fill="url(#eYfOVGEL7eJ132-fill)"/></g><g opacity="0.4"><g><path d="M242.39,69.571c-15.32.088-30.297,1.024-44.602,2.783-.767.094-1.332.751-1.327,1.524c0,.011,0,.021,0,.032.006.909.789,1.605,1.691,1.494c14.192-1.745,29.056-2.672,44.263-2.759.829-.005,1.502-.67,1.51-1.499c0-.011,0-.022,0-.033.007-.851-.685-1.547-1.535-1.542Z" fill="url(#eYfOVGEL7eJ135-fill)"/></g><g><path d="M242.323,76.374c-15.295.091-30.249,1.026-44.533,2.782-.764.094-1.334.747-1.334,1.517c0,.01,0,.021,0,.032c0,.912.793,1.612,1.698,1.501c14.171-1.742,29.011-2.668,44.193-2.758.829-.005,1.501-.67,1.51-1.499c0-.011,0-.022,0-.033.01-.851-.684-1.547-1.534-1.542Z" fill="url(#eYfOVGEL7eJ137-fill)"/></g><g><path d="M242.276,83.177c-15.277.092-30.213,1.027-44.48,2.78-.764.094-1.335.747-1.334,1.517c0,.011,0,.021,0,.032.001.912.793,1.613,1.698,1.501c14.154-1.74,28.977-2.665,44.141-2.757.833-.005,1.508-.676,1.51-1.509c0-.011,0-.022,0-.033.003-.846-.688-1.536-1.535-1.531Z" fill="url(#eYfOVGEL7eJ139-fill)"/></g><g><path d="M212.985,91.229c-5.132.411-10.199.919-15.182,1.531-.764.094-1.335.747-1.334,1.517c0,.011,0,.021,0,.032.001.912.793,1.612,1.698,1.501c4.945-.607,9.973-1.111,15.067-1.519.783-.063,1.393-.71,1.401-1.496c0-.01,0-.021,0-.031.008-.894-.759-1.607-1.65-1.535Z" fill="url(#eYfOVGEL7eJ141-fill)"/></g></g><g opacity="0.4"><g><path d="M259.691,101.59c15.32.089,30.297,1.024,44.602,2.783.767.094,1.332.751,1.327,1.524c0,.011,0,.021,0,.032-.006.909-.789,1.605-1.691,1.494-14.192-1.745-29.056-2.672-44.263-2.759-.829-.005-1.502-.67-1.51-1.499c0-.011,0-.022,0-.033-.007-.851.685-1.547,1.535-1.542Z" fill="url(#eYfOVGEL7eJ144-fill)"/></g><g><path d="M259.758,108.394c15.295.091,30.249,1.026,44.533,2.782.764.094,1.334.747,1.334,1.517c0,.01,0,.021,0,.032c0,.912-.793,1.612-1.698,1.501-14.17-1.742-29.011-2.668-44.193-2.758-.829-.005-1.501-.671-1.51-1.499c0-.011,0-.022,0-.033-.01-.851.684-1.547,1.534-1.542Z" fill="url(#eYfOVGEL7eJ146-fill)"/></g><g><path d="M259.804,115.197c15.277.092,30.212,1.027,44.48,2.78.764.094,1.335.747,1.334,1.517c0,.011,0,.021,0,.032-.001.912-.793,1.613-1.698,1.501-14.154-1.74-28.977-2.665-44.141-2.757-.833-.005-1.508-.676-1.51-1.509c0-.011,0-.022,0-.033-.002-.846.688-1.537,1.535-1.531Z" fill="url(#eYfOVGEL7eJ148-fill)"/></g><g><path d="M289.096,123.248c5.132.411,10.199.919,15.181,1.531.764.094,1.335.747,1.334,1.517c0,.01,0,.021,0,.032-.001.912-.793,1.612-1.698,1.501-4.945-.607-9.973-1.111-15.067-1.519-.783-.063-1.393-.71-1.401-1.496c0-.01,0-.02,0-.031-.008-.894.759-1.606,1.651-1.535Z" fill="url(#eYfOVGEL7eJ150-fill)"/></g></g></g><g><g><g><path d="M332.69,113.085v70.507c1.499.143,2.969.296,4.42.458c5.948.62,11.514,1.289,16.727,2.014c3.275.439,6.397.907,9.395,1.394c8.535,1.375,15.954,2.883,22.37,4.506c25.806,6.521,35.297,14.913,35.297,24.059v-70.517c-.001-13.794-21.587-25.871-88.209-32.421Z" opacity="0.4" fill="url(#eYfOVGEL7eJ154-fill)"/></g><g><g><path d="M342.652,128.003v0c0,1.114.85,2.045,1.958,2.158c57.563,5.861,76.288,16.472,76.288,28.574v-4.37c0-12.071-18.631-22.66-75.855-28.521-1.278-.131-2.391.875-2.391,2.159Z" fill="url(#eYfOVGEL7eJ157-fill)"/></g><g><path d="M342.652,136.803v0c0,1.114.85,2.046,1.958,2.158c57.563,5.861,76.288,16.472,76.288,28.573v-4.37c0-12.071-18.631-22.659-75.855-28.521-1.278-.131-2.391.875-2.391,2.16Z" fill="url(#eYfOVGEL7eJ159-fill)"/></g><g><path d="M342.652,145.602v0c0,1.114.85,2.045,1.958,2.158c57.563,5.861,76.288,16.472,76.288,28.573v-4.37c0-12.071-18.631-22.659-75.855-28.521-1.278-.13-2.391.876-2.391,2.16Z" fill="url(#eYfOVGEL7eJ161-fill)"/></g><g><path d="M342.652,154.402v0c0,1.114.85,2.046,1.958,2.158c57.563,5.861,76.288,16.472,76.288,28.574v-4.37c0-12.071-18.631-22.659-75.855-28.521-1.278-.132-2.391.874-2.391,2.159Z" fill="url(#eYfOVGEL7eJ163-fill)"/></g><g><path d="M342.652,163.201v0c0,1.114.85,2.046,1.958,2.158c57.563,5.861,76.288,16.472,76.288,28.574v-4.37c0-12.071-18.631-22.66-75.855-28.521-1.278-.131-2.391.875-2.391,2.159Z" fill="url(#eYfOVGEL7eJ165-fill)"/></g><g><path d="M386.022,178.845c-.016-1.376,1.278-2.394,2.615-2.064c23.61,5.822,32.262,13.357,32.262,21.581v4.37c0-8.339-8.892-15.97-33.255-21.827-.937-.225-1.609-1.053-1.621-2.017-.001-.014-.001-.028-.001-.043Z" fill="url(#eYfOVGEL7eJ167-fill)"/></g></g><path d="M401.711,166.982v70.517c12.099-6.053,19.186-13.391,19.186-21.3v-70.517c0,7.901-7.087,15.238-19.186,21.3Z" fill="#e99bea"/></g></g><g id="eYfOVGEL7eJ169_tr" transform="translate(341.153578,60.629874) rotate(0)"><g transform="translate(-299.96818,-65.844306)"><g><g><path d="M325.744,72.088c-.271,1.026-.604,2.066-1.01,3.129-3.675,9.669-11.334,14.715-19.596,15.95-15.326,2.323-32.739-8.411-30.735-26.961.192-1.782.584-3.535,1.172-5.218c2.33-6.845,7.628-12.686,14.329-15.458c3.465-1.425,7.092-2.107,10.653-2.117c15.579-.031,30.013,12.641,25.187,30.675Z" fill="#b151c7"/><path d="M300.556,41.415c-.07.206-.131.412-.181.62-.554,2.172-.452,4.367.4,6.441.753,1.843,2.106,3.329,3.159,4.998.624.971,1.45,2.477.648,3.552-.743.99-2.531,1.799-3.521,2.836-2.869,3-2.72,7.536-.321,10.762c2.632,3.542,6.979446-2.49656,6.979446-2.49656s12.284554,4.01256,16.345554,3.85856c.538-.019,1.112.006,1.679.101c4.826-18.033-9.608-30.705-25.188-30.672ZM299.51,80.63c-1.299-.692-2.648-1.277-3.971-1.931-.493-.24-.801-.401-1.382-.771-.229-.144-.457-.297-.674-.46-.113-.082-.485-.421-.544-.447-.009-.011-.009-.011-.009-.011-.709-.726-1.072-1.358-1.036-2.578.05-1.462.712-2.875,1.245-4.199c1.194-2.939.932-9.337.932-9.337s-4.987-4.497-8.266-4.48c-3.633.023-6.786,1.772-10.232,2.572-.587,1.683-.979,3.436-1.172,5.218-2.004,18.549,15.409,29.284,30.735,26.961.175-1.288.251-2.596-.01-3.875-.618-3.114-2.902-5.226-5.616-6.662Z" fill="#cd69e1"/></g><path d="M326.025,70.952c-.087.376-.184.751-.282,1.136-.271,1.026-.604,2.066-1.01,3.129-3.675,9.669-11.334,14.715-19.596,15.95-15.326,2.323-32.739-8.411-30.735-26.961.192-1.782.584-3.535,1.172-5.218.62-1.811,1.447-3.562,2.464-5.194-.119.605-.209,1.224-.279,1.844-2.004,18.549,15.409,29.284,30.735,26.961c6.938-1.038,13.447-4.759,17.531-11.647Z" fill="#713a85"/><path d="M339.792,48.431c-.326,1.546-1.344,2.874-2.293,4.109-3.085,4.053-6.816,7.519-10.892,10.564-3.985,2.979-8.276,5.543-12.625,7.872-9.965,5.335-20.385,9.855-31.058,13.57-.196.065-.391.14-.587.205-2.396.833-4.805,1.619-7.228,2.359-2.759.846-5.719,2.045-8.638,1.829-2.523-.193-4.995-1.879-5.461-4.47-.481-2.647,1.264-4.884,3.023-6.631c3.2-3.17,6.622-6.119,10.291-8.754.095,1.202.283,2.367.535,3.488-3.097,2.594-6.1,5.382-8.695,8.441-.975,1.151-2.157,3.021-.115,3.746c1.984.72,4.611-.536,6.511-1.106c2.226-.684,4.45-1.396,6.651-2.145c2.603-.88,5.191-1.816,7.757-2.789c9.146-3.496,18.159-7.519,26.689-12.344c4.192-2.373,8.273-5.024,11.98-8.104c3.045-2.523,5.844-5.34,8.256-8.519.542-.72,1.047-1.426,1.39-2.234-.009.001-.009.001-.019.002-.233-.028-.404-.118-.744-.156-2.111-.2-4.711.382-6.878.753-2.404.402-4.8.908-7.166,1.528-1.186-1.27-2.534-2.401-3.984-3.389c4.536-1.615,9.223-2.716,14.046-3.251c2.549-.29,5.686-.765,7.822,1.037c1.267,1.071,1.772,2.785,1.432,4.389Z" fill="#9b51c7"/></g><path d="M305.856,33c.726,1.804,2.832,3.082,4.91,2.948s3.928-1.694,4.209-3.584c.335-2.257-2.068-5.498-4.74-5.395-3.245.124-5.52,3.197-4.379,6.031Z" fill="#e47272"/><path d="M275.171,109.661c2.498,1.885,6.157,2.07,8.832.445c6.48-3.935,3.441-14-3.799-14.552-7.524-.573-10.949,9.643-5.033,14.107Z" fill="#fff"/></g></g><g id="eYfOVGEL7eJ178_to" transform="translate(391.475006,94.0695)"><g transform="translate(-391.475006,-94.0695)"><polygon points="376.779,102.629 395.602,108.712 391.492,89.263 372.595,83.097" fill="#36163d"/><polygon points="395.602,108.711 410.355,95.534 406.171,76.002 391.492,89.263" fill="#ad31ae"/><polygon points="372.595,83.097 391.492,89.262 406.171,76.002 387.273,69.837" fill="#fff"/><g><line x1="408.214" y1="113.096" x2="408.214" y2="92.008" fill="none" stroke="#b059c7" stroke-width="2" stroke-miterlimit="10"/><line x1="408.214" y1="115.275" x2="408.214" y2="118.302" fill="none" stroke="#b059c7" stroke-width="2" stroke-miterlimit="10"/></g><line x1="403.127" y1="108.909" x2="403.127" y2="98.587" fill="none" stroke="#b059c7" stroke-width="2" stroke-miterlimit="10"/></g></g><g><g><g><path d="M353.138,218.701v-25.792c12.099,6.053,19.186,13.391,19.186,21.3v25.792c0-7.901-7.087-15.239-19.186-21.3Z" opacity="0.4" fill="url(#eYfOVGEL7eJ189-fill)"/><path d="M337.028,238.442c-4.749,1.201-10.05,2.339-15.944,3.408.026,8.593.052,17.185.077,25.778c37.877-6.868,51.163-16.631,51.163-27.453v-25.792c.001,9.146-9.489,17.538-35.296,24.059Z" fill="#e99bea"/></g></g><path d="M358.694,205.696c0,.019.001.038.001.056.01.683.369,1.312.942,1.684c8.089,5.254,12.687,11.241,12.687,17.596v-5.008c0-5.727-6.636342-8.485151-10.374-16.008-1.363-.996-3.282-.007-3.256,1.68Z" opacity="0.4" fill="url(#eYfOVGEL7eJ191-fill)"/><path d="M358.766,214.242c0,.017,0,.033,0,.05.005.689.365,1.325.943,1.701c8.046,5.243,12.616,11.214,12.616,17.55v-5.008c0-5.705-3.698-11.11-10.296-15.952-1.357-.994-3.274-.022-3.263,1.659Z" opacity="0.4" fill="url(#eYfOVGEL7eJ192-fill)"/></g><g id="eYfOVGEL7eJ193_to" transform="translate(345.015503,182.848503)"><g transform="translate(-345.0155,-182.597143)"><g><path d="M361.457,209.448c0,0,14.463-10.495,33.834-18.994l-29.855-44.419-26.858,23.982c0,0-22.813,11.81-41.716,4.968l-2.122,6.764l28.595,41.449c.001-.001,22.953-.321,38.122-13.75Z" fill="#ad31ae"/><path d="M337.272,167.703l21.972,38.938c0,0-17.04,14.088-34.921,10.388l-26.821-44.086c24.376,5.332,24.664-13.256,39.77-5.24Z" fill="#f5f9fd"/><path d="M337.272,167.703c-1.048-12.509,21.340776-25.204,21.340776-25.204L389.036,187.694c0,0-17.943.825-29.792,18.948l-21.972-38.939Z" transform="translate(1.387224 1.954006)" fill="#f5f9fd"/><g><line x1="337.272" y1="167.703" x2="359.245" y2="206.641" fill="none" stroke="#a151c7" stroke-miterlimit="10"/></g></g><path d="M321.151,181.481c-1.068-1.995-2.102-4.034-3.361-5.914-.14-.209-.444-.408-.711-.3-2.529,1.024-5.189,1.669-7.795,2.476-.271-.058-.567.07-.747.292-.395.336-.272,1.008.143,1.21.618,1.196,1.236,2.392,1.854,3.588.335.648.659,1.307,1.022,1.94.293.511.685.992,1.285,1.126.634.142,1.313-.151,1.88-.401.679-.299,1.342-.635,2.009-.959c1.369-.666,2.741-1.321,4.121-1.964.398-.188.491-.737.3-1.094Zm-4.549,1.483c-.562.284-1.125.568-1.687.852-.298.15-.592.305-.885.465-.203.11-.506.337-.741.295-.413-.074-.641-.858-.797-1.168-.288-.572-.589-1.138-.885-1.705-.484-.927-.969-1.855-1.454-2.782c2.237-.79,4.449-1.66,6.737-2.282.73,1.674,1.601,3.292,2.471,4.901-.918.479-1.835.958-2.759,1.424Z" fill="#ebcfef"/><path d="M333.673,169.314c-4.288-1.368-7.499,2.947-11.304,3.903-.682.171-.405,1.197.276,1.051c1.887-.404,3.493-1.475,5.156-2.397c1.692-.937,3.541-1.653,5.461-.989.98.339,1.409-1.25.411-1.568Z" fill="#ebcfef"/><path d="M334.923,173.394c-.877-.088-1.83.049-2.699.175-.904.131-1.793.357-2.651.669-1.723.628-3.288,1.564-4.645,2.798-.632.575.29,1.465.929.929c1.242-1.041,2.698-1.843,4.243-2.333.756-.24,1.536-.42,2.324-.514.846-.101,1.654-.027,2.499-.008.464.01.858-.402.858-.858c0-.501-.395-.811-.858-.858Z" fill="#ebcfef"/><path d="M337.939,179.11c-8.407.819-14.612,7.342-22.631,9.311-.833.205-.493,1.449.335,1.28c3.988-.817,7.565-2.778,11.125-4.668c3.505-1.861,7.148-3.731,11.171-4.057c1.196-.097,1.191-1.982,0-1.866Z" fill="#ebcfef"/><path d="M325.637,189.113c-.668.158-1.272.506-1.897.779-.549.24-1.11.453-1.68.638-1.205.39-2.469.676-3.728.829-.364.044-.679.281-.679.679c0,.355.311.694.679.679c1.402-.059,2.777-.279,4.123-.678.664-.197,1.313-.434,1.949-.706.671-.287,1.346-.591,1.864-1.119.462-.472,0-1.25-.631-1.101Z" fill="#ebcfef"/><path d="M348.77,195.338c-1.007-3.44-3.369-7.621-7.486-7.445-2.38.102-4.451,1.478-6.375,2.746-2.005,1.321-4.081,2.532-6.225,3.615-2.461,1.244-4.978,2.393-7.555,3.378-.389.149-.483.547-.371.846-.578-.018-1.133.522-.765,1.195.991,1.815,2.186,3.535,3.294,5.281.245.386.757.57,1.172.323c3.613-2.144,7.404-3.984,11.336-5.466c1.96-.739,3.952-1.395,5.968-1.964c2.008-.567,4.077-1.14,6.152-1.402.539-.067,1.031-.505.855-1.107Zm-7.428.909c-2.057.576-4.09,1.241-6.089,1.993-3.771,1.419-7.418,3.145-10.917,5.14-.933-1.527-1.847-3.081-2.887-4.532-.011-.015-.025-.021-.036-.035.009-.002.017,0,.026-.003c4.281-1.26,8.348-3.045,12.2-5.297c2.977-1.741,7.47-5.834,10.766-2.56c1.121,1.113,1.717,2.55,2.301,3.984-1.791.429-3.59.813-5.364,1.31Z" fill="#ebcfef"/><path d="M347.577,198.037c-1.815.511-3.594,1.311-5.367,1.959-1.789.654-3.577,1.308-5.366,1.962-3.581,1.311-7.146,2.66-10.701,4.039-.84.326-.518,1.685.362,1.381c3.642-1.255,7.273-2.541,10.89-3.867c1.788-.656,3.576-1.311,5.365-1.967c1.797-.659,3.689-1.21,5.43-2.002.852-.388.266-1.752-.613-1.505Z" fill="#ebcfef"/><path d="M337.112,206.295c-.447-.037-.875.213-1.265.408-.322.161-.646.316-.974.465-.659.298-1.328.571-2.009.814-1.43.51-2.9.896-4.394,1.163-.398.071-.631.545-.535.915.113.43.513.59.915.535c1.555-.216,3.089-.56,4.585-1.04.757-.243,1.5-.523,2.233-.831.702-.295,1.71-.592,2.106-1.289.302-.531-.104-1.095-.662-1.14Z" fill="#ebcfef"/><path d="M356.16,150.616c-.873.023-1.798.637-2.558,1.035-.766.402-1.513.838-2.24,1.306-1.543.994-3.002,2.128-4.345,3.378-2.659,2.476-4.849,5.455-6.447,8.716-.386.788.788,1.472,1.196.679c1.594-3.093,3.723-5.855,6.28-8.213c1.274-1.174,2.649-2.23,4.113-3.156.701-.443,1.42-.855,2.155-1.237.749-.388,1.764-.657,2.368-1.247.454-.438.121-1.278-.522-1.261Z" fill="#ebcfef"/><path d="M348.323,161.926c-.172-.172-.494-.239-.705-.096-.539.368-.939.829-1.358,1.323-.414.488-.81.989-1.211,1.487-.791.982-1.582,1.964-2.372,2.945-.226.28-.274.668,0,.942.24.24.706.274.941,0c.82-.952,1.641-1.905,2.461-2.857.404-.469.814-.934,1.206-1.413.422-.515.862-1.013,1.134-1.626.106-.24.1-.509-.096-.705Z" fill="#ebcfef"/><path d="M368.445,164.505c-1.047-1.871-2.28-3.917-4.339-4.796-2.345-1.001-4.799-.025-6.888,1.132-2.126,1.178-4.13,2.587-5.987,4.154-1.882,1.589-3.724,3.413-5.087,5.477-.032.049-.044.098-.059.147-.596-.016-1.205.656-.807,1.268c1.292,1.988,2.9,3.81,4.349,5.687.304.394.91.271,1.231,0c5.351-4.531,11.14-8.52,17.271-11.922.399-.222.536-.753.316-1.147Zm-21.48,6.772c.042-.025.086-.046.124-.085c1.546-1.581,3.021-3.191,4.701-4.638c1.647-1.42,3.424-2.683,5.302-3.78c1.774-1.038,4.099-2.467,6.219-1.646c1.518.587,2.484,2.074,3.269,3.48-5.718,3.214-11.13,6.939-16.185,11.118-1.118-1.496-2.211-3.04-3.43-4.449Z" fill="#ebcfef"/><path d="M369.968,167.827c-.583-.258-1.049.018-1.597.251-.478.203-.949.422-1.411.658-.949.483-1.864,1.033-2.737,1.645-1.745,1.222-3.293,2.663-4.627,4.324-.511.637.358,1.553.917.917c1.308-1.489,2.807-2.828,4.449-3.94.817-.553,1.67-1.053,2.552-1.496.441-.221.89-.429,1.345-.62.477-.2,1.127-.302,1.365-.806.147-.309.102-.774-.256-.933Z" fill="#ebcfef"/><path d="M372.231,171.34c-.179-.235-.437-.296-.719-.253-.227.035-.426.194-.618.313-.146.09-.292.18-.438.271-.302.189-.6.384-.899.576-.611.392-1.22.782-1.811,1.205-.252.181-.408.52-.224.812.179.284.515.375.812.224.657-.334,1.292-.701,1.93-1.068.319-.183.639-.363.955-.552.147-.088.295-.176.442-.264.084-.05.17-.098.253-.151.161-.102.26-.207.371-.36.159-.214.093-.559-.054-.753Z" fill="#ebcfef"/><path d="M372.562697,177.036c0,0-.778697-.765-1.559697-.434-.773.328-1.536.681-2.287,1.058-1.605.806-3.154,1.723-4.634,2.739-2.926,2.009-5.553,4.421-7.831,7.141-.529.631.359,1.548.917.917c2.261-2.559,4.841-4.814,7.672-6.723c1.394-.94,2.847-1.791,4.349-2.546.751-.378,1.514-.731,2.288-1.06.76-.323,1.771-.513,2.426-1.009.536-.405-.520303-.109-1.340303-.083Z" fill="#ebcfef"/><path d="M358.454,177.786c-.891-1.124-2.405-1.549-3.754-1.063-1.639.589-2.602,2.119-2.944,3.767-.055.268.054.475.223.6.467,1.406,1.723,2.361,3.192,2.535c1.431.17,2.813-.589,3.57-1.79.807-1.28.635-2.886-.287-4.049Zm-.931,2.211c0,.011-.005.066-.007.1-.006.033-.015.087-.018.098-.012.055-.026.11-.041.164-.016.054-.033.107-.052.161-.005.015-.004.016-.004.018-.005.008-.01.014-.023.038-.063.111-.119.222-.19.328-.008.011-.04.053-.06.079-.021.024-.046.052-.053.06-.076.084-.157.163-.242.239-.009.008-.04.034-.065.055-.038.025-.128.089-.145.1-.095.061-.193.118-.295.168-.01.005-.051.023-.081.038-.031.011-.075.027-.086.031-.108.035-.217.059-.328.084-.014.003-.01.003-.017.005-.086.007-.171.011-.257.01-.058,0-.115-.004-.173-.007-.021-.001-.024,0-.024.002-.01-.002-.013-.003-.037-.008-.142-.029-.279-.066-.418-.107-.011-.003-.035-.012-.056-.02-.066-.029-.131-.06-.194-.093-.115-.061-.228-.127-.337-.198-.009-.006-.041-.027-.068-.046-.031-.026-.103-.082-.114-.092-.109-.096-.208-.201-.305-.309-.038-.043-.076-.087-.113-.13-.007-.008-.074-.098-.092-.12-.072-.109-.139-.219-.199-.335-.065-.126-.154-.211-.252-.277.306-.699.767-1.325,1.454-1.696.416-.225.898-.35,1.37-.279.051.008.172.04.249.063.162.049.113.033.238.1.243.129.263.14.466.347.04.04.076.083.115.124.023.025.026.026.037.037.002.004-.002.002.011.02.065.092.125.189.178.289.027.05.052.101.076.152.008.016.007.014.011.02.002.006,0,.003.004.012.043.119.079.241.106.366-.003-.012.015.109.023.15.002.034.004.083.005.092.006.054.006.111.003.167Z" fill="#ebcfef"/><path d="M363.506,186.812c-.202-.265-.662-.425-.96-.202-1.39,1.04-2.645,2.264-3.935,3.423-.275.247-.271.75,0,.997.305.279.691.252.997,0c.647-.532,1.295-1.064,1.942-1.596.647-.531,1.298-1.055,1.895-1.643.266-.261.283-.688.061-.979Z" fill="#ebcfef"/><path d="M377.835,181.971c-1.619.533-3.195,1.338-4.7,2.131-1.56.822-3.075,1.732-4.528,2.73-2.873,1.974-5.488,4.296-7.817,6.886-.569.633.337,1.558.942.941c2.367-2.416,4.985-4.564,7.801-6.436c1.371-.911,2.788-1.75,4.249-2.51c1.537-.799,3.138-1.417,4.71-2.134.898-.41.282-1.918-.657-1.608Z" fill="#ebcfef"/></g></g><g><g><g><path d="M177.117,83.311v70.507c-1.499.143-2.969.296-4.42.458-5.948.621-11.514,1.289-16.727,2.015-3.275.439-6.397.907-9.395,1.394-8.535,1.375-15.954,2.883-22.369,4.506-25.806,6.521-35.297,14.913-35.297,24.059v-70.517c0-13.795,21.586-25.873,88.208-32.422Z" opacity="0.4" fill="url(#eYfOVGEL7eJ220-fill)"/></g><g><g id="eYfOVGEL7eJ222_tr" transform="translate(91.539368,120.564733) rotate(0)"><g transform="translate(-90.568715,-121.003086)"><path d="M167.155,98.229v0c0,1.114-.85,2.045-1.958,2.158-57.563,5.861-76.288,16.472-76.288,28.573v-4.37c0-12.071,18.631-22.66,75.856-28.521c1.277-.131,2.39.875,2.39,2.16Z" fill="url(#eYfOVGEL7eJ223-fill)"/></g></g><g><path d="M167.155,107.028v0c0,1.114-.85,2.046-1.958,2.158-57.563,5.861-76.288,16.472-76.288,28.573v-4.37c0-12.071,18.631-22.659,75.856-28.521c1.277-.13,2.39.876,2.39,2.16Z" fill="url(#eYfOVGEL7eJ225-fill)"/></g><g><path d="M167.155,115.828v0c0,1.114-.85,2.045-1.958,2.158-57.563,5.861-76.288,16.472-76.288,28.573v-4.37c0-12.071,18.631-22.659,75.856-28.521c1.277-.131,2.39.875,2.39,2.16Z" fill="url(#eYfOVGEL7eJ227-fill)"/></g><g><path d="M167.155,124.627v0c0,1.114-.85,2.045-1.958,2.158-57.563,5.861-76.288,16.472-76.288,28.574v-4.37c0-12.071,18.631-22.659,75.856-28.521c1.277-.131,2.39.875,2.39,2.159Z" fill="url(#eYfOVGEL7eJ229-fill)"/></g><g><path d="M167.155,133.427v0c0,1.114-.85,2.045-1.958,2.158-57.563,5.861-76.288,16.472-76.288,28.574v-4.37c0-12.071,18.631-22.66,75.856-28.521c1.277-.132,2.39.874,2.39,2.159Z" fill="url(#eYfOVGEL7eJ231-fill)"/></g><g><path d="M123.785,149.07c.016-1.376-1.278-2.394-2.614-2.064-23.61,5.822-32.262,13.357-32.262,21.582v4.37c0-8.339,8.892-15.97,33.255-21.827.937-.225,1.61-1.053,1.621-2.017c0-.014,0-.029,0-.044Z" fill="url(#eYfOVGEL7eJ233-fill)"/></g></g><path d="M108.095,137.207v70.517c-12.099-6.053-19.186-13.391-19.186-21.3v-70.517c.001,7.901,7.088,15.239,19.186,21.3Z" fill="#e99bea"/></g></g><g id="eYfOVGEL7eJ235_tr" transform="translate(209.786301,125.716022) rotate(0)"><g transform="translate(-209.786301,-125.716022)"><g><ellipse rx="11.138" ry="11.138" transform="matrix(.4375-.8992 0.8992 0.4375 225.018705 134.256409)" fill="#36163d"/><path d="M211.611,138.291c1.77,5.891-1.572,12.102-7.463,13.871-5.891,1.77-12.102-1.572-13.872-7.464-1.769-5.891,1.572-12.102,7.464-13.872c5.892-1.768,12.102,1.573,13.871,7.465Z" fill="#36163d"/><path d="M235.5,103.902l-58.884,17.686c-6.507,1.954-10.197,8.813-8.243,15.32l1.821,6.063c2.033,6.767,9.166,10.605,15.933,8.573l57.941-17.403c6.767-2.033,10.605-9.166,8.573-15.933l-1.821-6.063c-1.954-6.507-8.813-10.197-15.32-8.243Z" fill="#36163d"/><path d="M234.635,99.298L174.8,117.269c-6.244,1.875-9.786,8.458-7.91,14.702l1.713,5.704c1.876,6.244,8.458,9.786,14.702,7.91l59.835-17.971c6.244-1.875,9.786-8.458,7.91-14.702l-1.713-5.704c-1.875-6.243-8.457-9.785-14.702-7.91Z" fill="#ad31ae"/><g><path d="M208.543,135.982c1.301,4.33-1.155,8.895-5.485,10.195-4.33,1.301-8.895-1.155-10.195-5.485-1.301-4.33,1.155-8.895,5.485-10.195c4.33-1.302,8.894,1.154,10.195,5.485Z" fill="#73318b"/><path d="M230.992,129.239c1.3,4.33-1.155,8.895-5.486,10.195-4.33,1.301-8.895-1.155-10.195-5.485s1.155-8.895,5.486-10.195c4.33-1.301,8.895,1.155,10.195,5.485Z" fill="#73318b"/><g><path d="M228.197,129.679c.827,2.754-.735,5.658-3.489,6.485s-5.658-.735-6.485-3.489.735-5.658,3.489-6.485c2.754-.828,5.658.734,6.485,3.489Z" fill="#fff"/></g><g><path d="M205.806,136.404c.827,2.754-.735,5.658-3.489,6.485s-5.658-.735-6.485-3.489.735-5.658,3.489-6.485c2.754-.828,5.658.734,6.485,3.489Z" fill="#fff"/></g></g><path d="M193.172,132.214c-.907,6.222-6.687,10.531-12.909,9.624s-10.531-6.687-9.624-12.909s6.686-10.531,12.909-9.624c6.222.907,10.531,6.686,9.624,12.909Z" fill="#73318b"/><path d="M247.471,115.905c-.907,6.222-6.687,10.531-12.909,9.624s-10.531-6.687-9.624-12.909s6.686-10.531,12.909-9.624c6.222.907,10.531,6.687,9.624,12.909Z" fill="#73318b"/><g><g><path d="M220.176,122.139c-6.372433,1.914557-21.242,6.38-21.242,6.38-1.483.445-3.047-.396-3.493-1.879l-3.656-12.173c-.445-1.483.396-3.047,1.879-3.493l21.242-6.38c1.483-.445,3.047.396,3.493,1.879l3.656,12.173c.446,1.484-.394961,3.04713-1.879,3.493Z" fill="#36163d"/><path d="M219.29,120.048l-20.768,6.238c-1.614.485-3.316-.431-3.801-2.045l-3.399-11.317c-.485-1.614.431-3.316,2.045-3.801l20.768-6.238c1.614-.485,3.316.431,3.801,2.045l3.399,11.317c.485,1.614-.431,3.316-2.045,3.801Z" fill="#a93bbb"/><path d="M214.979,106.91l2.579,8.585c.345,1.148-.305,2.362-1.457,2.708l-15.709,4.718c-.369.111-.746.117-1.101.035-.737-.162-1.374-.713-1.607-1.492l-2.579-8.585c-.193-.641.171-1.316.812-1.509l17.553-5.272c.641-.193,1.317.171,1.509.812Z" fill="#d9dade"/></g><polygon points="211.925,106.562 208.304,120.545 200.779,122.805 204.4,108.822" fill="#fff"/><path d="M202.829,109.294l-3.538,13.662c-.737-.162-1.374-.713-1.607-1.492l-1.048-3.489l1.912-7.396l4.281-1.285Z" fill="#fff"/><polygon points="215.268,107.872 216.489,111.935 214.761,118.605 212.301,119.345" fill="#fff"/></g><g><path d="M207.355,128.667c.125.415-.111.852-.525.977-.415.125-.852-.111-.977-.525-.125-.415.111-.852.525-.977.415-.125.852.11.977.525Z" fill="url(#eYfOVGEL7eJ259-fill)"/><path d="M209.306,130.4c.125.415-.111.852-.525.977-.415.125-.852-.111-.977-.525-.125-.415.111-.852.525-.976.415-.125.852.11.977.524Z" fill="url(#eYfOVGEL7eJ260-fill)"/><path d="M209.987,127.876c.125.415-.111.852-.525.977-.415.125-.852-.111-.977-.525-.125-.415.111-.852.525-.977.415-.125.852.111.977.525Z" fill="url(#eYfOVGEL7eJ261-fill)"/><path d="M211.937,129.61c.125.415-.111.852-.525.976-.415.125-.852-.111-.976-.525-.125-.415.111-.852.525-.977.415-.124.852.111.976.526Z" fill="url(#eYfOVGEL7eJ262-fill)"/><path d="M212.618,127.086c.125.415-.111.852-.525.977-.415.124-.852-.111-.977-.526-.124-.415.111-.852.525-.976.416-.125.853.11.977.525Z" fill="url(#eYfOVGEL7eJ263-fill)"/><path d="M214.569,128.82c.125.415-.111.852-.525.977-.415.124-.852-.111-.976-.525-.125-.415.111-.852.525-.977s.851.11.976.525Z" fill="url(#eYfOVGEL7eJ264-fill)"/><path d="M215.25,126.295c.124.415-.111.852-.525.976-.415.125-.852-.111-.977-.525-.125-.415.111-.852.525-.977.415-.124.853.112.977.526Z" fill="url(#eYfOVGEL7eJ265-fill)"/></g><g><g><g><path d="M182.74,126.433l-1.106,1.345c-.153.186-.384.255-.614.184l-1.664-.513c-.252-.077-.464-.311-.553-.607l-.724-2.409c-.133-.445.048-.892.405-.999l2.77-.832c.357-.107.755.166.889.611l.723,2.409c.09.297.042.608-.126.811Z" fill="#fff"/></g><g><path d="M183.428987,134.749468c.111573-.830417-1.135987-2.551468-1.135987-2.551468.153-.186.383-.255.614-.184l1.664.513c.252.078.464.311.553.607l.724,2.409c.134.445-.048.892-.405.999l-2.77.832c-.357.107-.755-.166-.889-.611l-.724-2.409c-.089-.296,2.33388.656758,2.368987.395468Z" fill="#fff"/></g></g><g><g><path d="M178.008,129.815l1.281.894c.177.124.236.319.156.52l-.576,1.452c-.087.219-.326.412-.622.501l-2.409.724c-.445.133-.879-.004-.97-.306l-.704-2.346c-.091-.303.196-.656.641-.79l2.409-.723c.295-.09.6-.061.794.074Z" fill="#fff"/></g><g><path d="M186.029,130.529l-1.281-.894c-.177-.124-.236-.319-.156-.52l.576-1.452c.087-.22.326-.412.622-.501l2.409-.724c.445-.133.879.003.97.306l.704,2.346c.091.303-.196.656-.641.79l-2.409.724c-.294.089-.6.061-.794-.075Z" fill="#fff"/></g></g></g><g><g><path d="M189.231,119.306v0c-.797.24-1.638-.213-1.877-1.01l-.295-.981c-.24-.797.213-1.638,1.01-1.877v0c.797-.24,1.638.213,1.877,1.01l.294.981c.241.797-.212,1.638-1.009,1.877Z" fill="#210042"/><g><path d="M189.947,116.448c.239.797-.213,1.638-1.01,1.877-.797.24-1.638-.213-1.877-1.01-.24-.797.213-1.638,1.01-1.877s1.637.213,1.877,1.01Z" fill="#fff"/></g></g><g><path d="M223.715,108.949v0c-.797.24-1.638-.213-1.877-1.01l-.295-.981c-.239-.797.213-1.638,1.01-1.877v0c.797-.24,1.638.213,1.877,1.01l.295.981c.24.797-.212,1.637-1.01,1.877Z" fill="#210042"/><g><path d="M224.431,106.091c.239.797-.213,1.638-1.01,1.877-.797.24-1.638-.213-1.877-1.01s.213-1.638,1.01-1.877c.797-.24,1.637.212,1.877,1.01Z" fill="#fff"/></g></g></g><g><g><g><circle r="2.734" transform="translate(234.475 108.505)" fill="#fff"/></g><g><ellipse rx="2.734" ry="2.734" transform="matrix(.4706-.8824 0.8824 0.4706 237.944958 120.01393)" fill="#fff"/></g></g><g><g><path d="M233.065,115.206c.434,1.446-.386,2.971-1.832,3.405s-2.971-.386-3.405-1.832.386-2.971,1.832-3.405c1.446-.435,2.971.385,3.405,1.832Z" fill="#fff"/></g><g><path d="M244.581,111.747c.434,1.446-.386,2.971-1.832,3.405s-2.971-.386-3.405-1.832.386-2.971,1.832-3.405c1.446-.435,2.97.386,3.405,1.832Z" fill="#fff"/></g></g><rect width="1.945" height="1.945" rx="0" ry="0" transform="matrix(.9577-.2876 0.2876 0.9577 229.222135 115.343195)" fill="#69a0e1"/><rect width="1.946" height="1.946" rx="0" ry="0" transform="matrix(.9577-.2876 0.2876 0.9577 233.25019 107.857038)" fill="#e47272"/><rect width="1.946" height="1.945" rx="0" ry="0" transform="matrix(.9577-.2876 0.2876 0.9577 236.725565 119.42855)" fill="#e05c5c"/><rect width="1.945" height="1.946" rx="0" ry="0" transform="matrix(.9577-.2876 0.2876 0.9577 240.753221 111.945993)" fill="#5186c7"/></g></g><path d="M247.291,111.655c-1.391-3.8-4.77-6.737-9.054-7.36-6.221-.907-12.001,3.403-12.91,9.626-.214,1.458-.139,2.895.18,4.248-.629-1.717-.854-3.611-.57-5.548.909-6.225,6.689-10.532,12.91-9.626c4.76.695,8.403,4.243,9.444,8.66Z" fill="#36163d"/><path d="M192.992,127.964c-1.391-3.8-4.769-6.737-9.054-7.36-6.221-.907-12.001,3.403-12.91,9.626-.214,1.458-.139,2.895.18,4.248-.629-1.717-.854-3.611-.57-5.548.909-6.225,6.689-10.532,12.91-9.626c4.76.694,8.403,4.243,9.444,8.66Z" fill="#36163d"/></g></g><g><g><g><g><g><g><path d="M203.212,197.126v46.553c0,2.867-1.846,5.587-4.158,6.081l-71.453,15.292c-3.742.801-6.837-1.57-6.837-5.311v-60.746c0-3.741,3.094-6.785,6.837-6.798l71.453-.248c2.312-.008,4.158,2.31,4.158,5.177Z" fill="#f5f9fd"/></g></g><path d="M203.212,197.126v.646l-82.448,2.066v-.843c0-3.741,3.094-6.785,6.837-6.798l71.453-.248c2.312-.008,4.158,2.31,4.158,5.177Z" fill="#af22b0"/><g><path d="M131.562,195.875c0,1.103-.894,2.015-2.004,2.037-1.117.023-2.028-.864-2.028-1.98s.911-2.028,2.028-2.038c1.11-.008,2.004.878,2.004,1.981Z" fill="#fff"/><path d="M138.422,195.777c0,1.081-.859,1.974-1.924,1.996-1.072.021-1.946-.847-1.946-1.94s.874-1.987,1.946-1.996c1.065-.009,1.924.86,1.924,1.94Z" fill="#fff"/><path d="M145.012,195.683c0,1.06-.825,1.935-1.849,1.956-1.03.021-1.87-.831-1.87-1.903s.84-1.947,1.87-1.956c1.024-.008,1.849.844,1.849,1.903Z" fill="#fff"/></g></g><g id="eYfOVGEL7eJ315_ts" transform="translate(168.126244,223.866158) scale(1,1)"><g transform="translate(-168.126243,-223.866157)"><path d="M162.742,214.038l12.654,6.666c1.186.625,1.186,2.582,0,3.457l-12.654,9.334c-1.245.918-2.775.132-2.775-1.439v-15.995c0-1.57,1.53-2.678,2.775-2.023Z" fill="#e47272"/></g></g></g><g><g><path d="M198.748,249.826l-70.661,15.122c-4.006.857-7.323-1.686-7.323-5.699v-5.171l82.448-14.739v3.963c0,3.076-1.981,5.993-4.464,6.524Z" fill="#af22b0"/><g><g><path d="M174.927,250.289c.008-.564-.01-1.13-.047-1.694l-37.681,7.4c-.571.112-.943.667-.831,1.238.099.502.54.851,1.033.851.067,0,.135-.006.204-.02l37.308-7.327c.004-.149.012-.299.014-.448Z" transform="translate(155.638496 253.339508)" fill="#e47272"/><path d="M199.014,243.855l-22.705,4.459c.086.584.146,1.172.199,1.76.01.115.015.23.024.345l22.889-4.495c.571-.112.943-.667.831-1.238-.113-.571-.666-.941-1.238-.831Z" fill="#fffffd"/></g><g><path d="M127.195,260.088c-.493,0-.935-.348-1.034-.851-.112-.571.26-1.126.831-1.238l18.912-3.715c.572-.113,1.126.26,1.238.831s-.26,1.126-.831,1.238l-18.912,3.715c-.068.014-.136.02-.204.02Z" fill="#e47272"/></g><path d="M178.333,248.957c0,2.071-1.594,4.082-3.582,4.495-2.012.419-3.662-.955-3.662-3.072s1.65-4.139,3.662-4.511c1.988-.368,3.582,1.017,3.582,3.088Z" fill="#e47272"/></g><path d="M176.525,249.312c0,1.026-.792,2.018-1.774,2.216-.988.2-1.794-.478-1.794-1.515s.805-2.032,1.794-2.22c.982-.188,1.774.493,1.774,1.519Z" fill="#fffffd"/></g></g></g></g><g><path d="M95.15,235.521c.001.016.001.039.01.063l.801,26.697c-.241-8.039,12.755-15.738,34.123-21.772l-.803-26.76c-21.376,6.035-34.372,13.733-34.131,21.772Z" opacity="0.4" fill="url(#eYfOVGEL7eJ329-fill)"/><g><path d="M120.777,225.15c-13.924,4.73-23.002,10.255-25.334,16.057.045,1.199.083,2.4.112,3.601c2.595-5.858,12.038-11.425,26.394-16.161.778-.257,1.301-.991,1.276-1.809v0c-.039-1.242-1.272-2.087-2.448-1.688Z" opacity="0.4" fill="url(#eYfOVGEL7eJ331-fill)"/><path d="M120.778,232.368c-13.59,4.617-22.546,9.993-25.136,15.643.007,1.265.006,2.529.003,3.793c2.733-5.777,12.128-11.262,26.303-15.939.777-.256,1.303-.99,1.277-1.808v-.002c-.039-1.24-1.272-2.086-2.447-1.687Z" opacity="0.4" fill="url(#eYfOVGEL7eJ332-fill)"/></g><path d="M95.112,234.169l.803,26.763c.41,13.67,39.027,24.065,91.558,26.159l-.804-26.769c-55.091903-1.189418-91.146-12.483-91.557-26.153Z" fill="#e99bea"/></g><g><g id="eYfOVGEL7eJ335_tr" transform="translate(442.583542,150.696495) rotate(0)"><g transform="translate(-442.583542,-150.696495)"><path d="M445.074,158.426c-1.049,0-2.097-.208-3.094-.625-1.978-.827-3.517-2.374-4.332-4.358-.814-1.983-.808-4.165.019-6.144.827-1.978,2.375-3.517,4.358-4.332l1.602,3.9c-.942.387-1.677,1.117-2.069,2.057-.392.939-.395,1.976-.009,2.918.387.942,1.118,1.677,2.057,2.07.94.393,1.975.394,2.917.009l1.602,3.9c-.985.403-2.018.605-3.051.605Z" fill="#e6bc7a"/></g></g><g id="eYfOVGEL7eJ337_tr" transform="translate(140.640266,59.968996) rotate(0)"><g transform="translate(-140.640266,-59.968996)"><path d="M143.13,67.699c-1.049,0-2.098-.208-3.095-.625-1.979-.827-3.517-2.374-4.332-4.358-1.681-4.096.283-8.796,4.377-10.477l1.602,3.9c-1.944.798-2.877,3.03-2.079,4.975.799,1.944,3.029,2.876,4.974,2.078l1.602,3.9c-.984.405-2.017.607-3.049.607Z" fill="#e6bc7a"/></g></g><g><path d="M28.632,189.286c-2.149,0-4.292-.854-5.871-2.545l3.082-2.878c1.434,1.535,3.85,1.619,5.388.185c1.536-1.434,1.619-3.851.184-5.387l3.082-2.878c3.021,3.235,2.847,8.326-.389,11.347-1.544,1.442-3.512,2.156-5.476,2.156Z" fill="#e8cfef"/></g></g><g><path d="M165.566,171.363c-4.717,0-4.719,7.321,0,7.321c4.718,0,4.72-7.321,0-7.321Z" fill="#fff"/><path d="M436,110.596c-4.717,0-4.719,7.321,0,7.321c4.718,0,4.72-7.321,0-7.321Z" fill="#fff"/><path d="M346.272,281.895c-4.717,0-4.719,7.321,0,7.321c4.718,0,4.72-7.321,0-7.321Z" fill="#fff"/><path d="M84.856,84.182c-4.717,0-4.719,7.321,0,7.321c4.717,0,4.719-7.321,0-7.321Z" fill="#fff"/><path d="M250.329,42.635c-2.696,0-2.697,4.183,0,4.183c2.695,0,2.697-4.183,0-4.183Z" fill="#fff"/><path d="M232.072,171.207c-2.696,0-2.697,4.183,0,4.183c2.696,0,2.697-4.183,0-4.183Z" fill="#fff"/><path d="M315.586,154.115c-2.696,0-2.697,4.183,0,4.183c2.695.001,2.697-4.183,0-4.183Z" fill="#fff"/><path d="M335.007,94.685c-2.696,0-2.697,4.183,0,4.183c2.696,0,2.697-4.183,0-4.183Z" fill="#fff"/><path d="M403.76,48.461c-2.696,0-2.697,4.183,0,4.183c2.696.001,2.697-4.183,0-4.183Z" fill="#fff"/><path d="M389.388,216.265c-2.696,0-2.697,4.184,0,4.184c2.696-.001,2.697-4.184,0-4.184Z" fill="#fff"/><path d="M310.148,231.025c-2.696,0-2.697,4.183,0,4.183c2.695.001,2.696-4.183,0-4.183Z" fill="#fff"/><path d="M180.411,297.448c-2.696,0-2.697,4.183,0,4.183c2.695,0,2.696-4.183,0-4.183Z" fill="#fff"/><path d="M89.517,212.769c-2.696,0-2.697,4.183,0,4.183c2.696,0,2.697-4.183,0-4.183Z" fill="#fff"/><path d="M36.301,138.967c-2.696,0-2.697,4.183,0,4.183c2.696,0,2.697-4.183,0-4.183Z" fill="#fff"/><path d="M171.477,61.28c-2.696,0-2.697,4.183,0,4.183c2.695,0,2.696-4.183,0-4.183Z" fill="#fff"/><path d="M435.612,180.917c-2.696,0-2.697,4.183,0,4.183c2.696.001,2.697-4.183,0-4.183Z" fill="#fff"/></g></g></g></svg>
